<?xml version="1.0" encoding="UTF-8"?>
<!DOCTYPE svg PUBLIC "-//W3C//DTD SVG 1.1//EN" "http://www.w3.org/Graphics/SVG/1.1/DTD/svg11.dtd">
<!-- Creator: CorelDRAW 2020 (64-Bit) -->
<svg xmlns="http://www.w3.org/2000/svg" xml:space="preserve" width="2480px" height="3508px" version="1.1" shape-rendering="geometricPrecision" text-rendering="geometricPrecision" image-rendering="optimizeQuality" fill-rule="evenodd" clip-rule="evenodd"
viewBox="0 0 2480 3507.43"
 xmlns:xlink="http://www.w3.org/1999/xlink"
 xmlns:xodm="http://www.corel.com/coreldraw/odm/2003">
 <g id="Слой_x0020_1">
  <metadata id="CorelCorpID_0Corel-Layer"/>
  <path fill="#FEFEFE" fill-rule="nonzero" d="M752.72 707.16l0 90.37 -33.96 0.06 0 -90.38 33.96 -0.05zm-16.89 -40.06c4.46,0.12 8.39,1.75 11.79,4.9 3.4,3.15 5.1,6.95 5.1,11.4 0,4.83 -1.64,8.73 -4.91,11.7 -3.28,2.98 -7.27,4.47 -11.98,4.47 -4.7,0.01 -8.69,-1.47 -11.97,-4.43 -3.27,-2.96 -4.91,-6.86 -4.91,-11.69 0,-4.45 1.73,-8.25 5.19,-11.42 3.47,-3.16 7.36,-4.74 11.69,-4.75l0 -0.18zm117.29 130.28l-33.59 0.05 0 -51.03c0,-1.98 -0.55,-3.74 -1.67,-5.29 -1.11,-1.54 -2.78,-2.31 -5.01,-2.31 -2.1,0 -3.74,0.81 -4.92,2.42 -1.17,1.61 -1.76,3.41 -1.76,5.39l0 50.84 -33.59 0.06 0 -50.48c0,-10.89 3.71,-20.55 11.13,-28.97 7.43,-8.42 16.83,-12.64 28.21,-12.66 12.62,-0.02 22.64,4.36 30.07,13.13 7.42,8.77 11.13,19.22 11.13,31.35l0 47.5zm68.67 -70.44l0 35.45 -15.59 0.02 0 34.89 -33.41 0.05 0 -79.24c0,-13.24 4.98,-24.19 14.94,-32.87 9.96,-8.67 21.31,-13.02 34.06,-13.04l0 35.44c-6.31,0.14 -10.4,1.94 -12.25,5.44 -1.86,3.49 -2.79,8.13 -2.79,13.89l15.04 -0.03zm9.83 24.67c0,-12.62 4.58,-23.51 13.73,-32.68 9.16,-9.17 20.05,-13.76 32.67,-13.78 12.86,-0.02 23.94,4.57 33.22,13.77 9.28,9.21 13.91,20.24 13.91,33.11 0,12.74 -4.63,23.76 -13.91,33.05 -9.28,9.29 -20.36,13.95 -33.22,13.97 -12.87,0.02 -23.82,-4.7 -32.85,-14.15 -9.03,-9.45 -13.55,-20.48 -13.55,-33.1l0 -0.19zm34.52 -0.24c0,3.59 1.18,6.71 3.53,9.37 2.35,2.66 5.25,3.98 8.72,3.98 3.46,-0.01 6.46,-1.22 9,-3.64 2.54,-2.41 3.8,-5.35 3.8,-8.82 0,-3.58 -1.3,-6.58 -3.89,-8.99 -2.6,-2.41 -5.63,-3.61 -9.1,-3.61 -3.21,0.01 -6.03,1.19 -8.44,3.54 -2.41,2.36 -3.62,5.14 -3.62,8.36l0 -0.19zm113.76 46.97l0 -35.82c1.24,0.87 2.47,1.58 3.71,2.13 1.24,0.56 2.6,0.83 4.08,0.83 3.59,-0.01 6.69,-1.28 9.28,-3.82 2.6,-2.54 3.9,-5.6 3.9,-9.19 0,-3.84 -1.33,-7.05 -3.99,-9.65 -2.66,-2.59 -5.91,-3.88 -9.74,-3.88 -4.58,0.01 -7.89,1.59 -9.93,4.75 -2.04,3.16 -3.06,6.78 -3.06,10.86l0 1.49 0 84.99 -34.15 0.05 0 -88.15c0,-12.99 4.55,-24.19 13.64,-33.61 9.09,-9.41 20.26,-14.13 33.5,-14.15 12.12,-0.02 23.01,4.35 32.66,13.12 9.65,8.77 14.48,19.41 14.48,31.9 0,13.49 -4.37,24.97 -13.09,34.45 -8.72,9.47 -19.95,14.22 -33.68,14.24 -1.24,0.01 -2.51,-0.02 -3.81,-0.08 -1.29,-0.06 -2.56,-0.22 -3.8,-0.46zm64.21 -47.05c0,-12.62 4.58,-23.51 13.73,-32.68 9.16,-9.17 20.05,-13.77 32.67,-13.78 12.86,-0.02 23.94,4.57 33.22,13.77 9.27,9.2 13.91,20.24 13.91,33.11 0,12.74 -4.64,23.76 -13.91,33.05 -9.28,9.29 -20.36,13.95 -33.22,13.97 -12.87,0.02 -23.82,-4.7 -32.85,-14.15 -9.03,-9.45 -13.55,-20.48 -13.55,-33.1l0 -0.19zm34.52 -0.24c0,3.59 1.17,6.71 3.52,9.37 2.36,2.66 5.26,3.98 8.73,3.98 3.46,-0.01 6.46,-1.22 9,-3.64 2.53,-2.41 3.8,-5.35 3.8,-8.82 0,-3.59 -1.3,-6.58 -3.89,-8.99 -2.6,-2.41 -5.63,-3.61 -9.1,-3.61 -3.22,0.01 -6.03,1.19 -8.44,3.54 -2.41,2.36 -3.62,5.14 -3.62,8.36l0 -0.19zm107.82 -78.1l0 123.78 -33.96 0.05 0 -123.78 33.96 -0.05zm32.48 163.26l0 -29.51c1.73,0.74 3.52,1.42 5.38,2.03 1.85,0.62 3.77,0.93 5.75,0.92 5.45,-0.01 10.15,-1.87 14.11,-5.59 3.96,-3.71 6.62,-7.99 7.98,-12.81 -2.6,1.48 -5.36,2.76 -8.26,3.81 -2.91,1.06 -5.85,1.59 -8.82,1.59 -8.29,0.02 -15.18,-3.16 -20.69,-9.52 -5.5,-6.37 -8.26,-13.51 -8.26,-21.42l0 -59.39 33.96 -0.05 0 48.43c0,2.11 0.5,4.03 1.49,5.76 0.99,1.73 2.66,2.59 5.01,2.59 2.72,-0.01 4.45,-0.94 5.19,-2.8 0.75,-1.85 1.12,-3.89 1.12,-6.12l0 -47.88 34.14 -0.05 0 81.84c0,14.23 -4.91,26.39 -14.75,36.49 -9.83,10.1 -21.93,15.15 -36.28,15.18 -2.97,0 -5.88,-0.27 -8.72,-0.83 -2.85,-0.55 -5.63,-1.44 -8.35,-2.67zm212.11 -39.85l-33.96 0.05 0 -46.77c0,-0.25 0,-0.62 0,-1.11 0,-0.5 -0.06,-0.99 -0.18,-1.49 -0.13,-1.73 -0.56,-3.3 -1.3,-4.73 -0.74,-1.42 -2.17,-2.13 -4.27,-2.12l-0.19 0c-1.97,0.25 -3.37,1.12 -4.17,2.6 -0.81,1.49 -1.27,3.07 -1.39,4.8 -0.13,0.37 -0.19,0.77 -0.19,1.2 0,0.44 0,0.84 0,1.21l0 46.43 -33.59 0.05 0 -46.77c0,-0.25 0,-0.56 0,-0.93 0,-0.37 0,-0.74 0,-1.11 -0.12,-1.86 -0.59,-3.56 -1.39,-5.1 -0.8,-1.55 -2.26,-2.32 -4.36,-2.31l-0.19 0c-1.98,0.25 -3.34,1.08 -4.08,2.51 -0.74,1.42 -1.17,2.91 -1.3,4.52 -0.12,0.49 -0.18,0.95 -0.18,1.39 0,0.43 0,0.89 0,1.39l0 46.42 -33.41 0.06 0 -56.79c0,-9.28 3.44,-17.48 10.3,-24.61 6.87,-7.12 15,-10.69 24.41,-10.7 5.81,-0.01 10.85,1.12 15.12,3.41 4.27,2.28 8.38,5.4 12.34,9.35 3.59,-3.59 7.52,-6.63 11.79,-9.11 4.26,-2.48 9.06,-3.73 14.38,-3.74 11.88,-0.01 20.81,3.96 26.81,11.93 6,7.98 9,17.47 9,28.48l0 51.59zm108.57 -39.88l-53.08 0.08c-0.24,-0.99 -0.49,-2.04 -0.74,-3.15 -0.25,-1.12 -0.37,-2.23 -0.37,-3.34 0,-1.74 0.16,-3.34 0.46,-4.83 0.31,-1.49 0.72,-2.97 1.21,-4.46l18.56 -0.02c-0.5,-2.91 -1.8,-5.29 -3.9,-7.17 -2.1,-1.89 -4.7,-2.84 -7.79,-2.84 -4.46,0.01 -7.86,1.62 -10.21,4.84 -2.35,3.22 -3.84,6.75 -4.45,10.59 0,0.62 -0.03,1.24 -0.1,1.85 -0.06,0.62 -0.09,1.24 -0.09,1.86 0,0.74 0.03,1.48 0.09,2.23 0.07,0.74 0.16,1.54 0.28,2.41 0.62,3.71 2.07,7.14 4.36,10.29 2.29,3.15 5.54,4.73 9.75,4.72 2.22,0 4.14,-0.47 5.75,-1.4 1.61,-0.93 3.09,-2.14 4.45,-3.63l19.49 22.98c-4.21,3.48 -8.91,6.11 -14.11,7.91 -5.19,1.81 -10.51,2.71 -15.96,2.72 -13.23,0.02 -24.46,-4.67 -33.68,-14.06 -9.22,-9.38 -13.82,-20.63 -13.82,-33.75 0,-12.49 4.73,-23.3 14.19,-32.4 9.47,-9.11 20.39,-13.67 32.76,-13.69 12.62,-0.02 23.63,4.44 33.03,13.43 9.4,8.99 14.1,19.84 14.1,32.55 0,0.49 0,0.99 0,1.48 0,0.47 0,1.02 0,1.64 -0.12,0.5 -0.18,0.99 -0.18,1.49 0,0.49 0,1.05 0,1.67zm64.58 -51.5l0 36.37c-0.25,0 -0.49,-0.06 -0.74,-0.19 -0.25,-0.12 -0.43,-0.18 -0.56,-0.18 -0.74,-0.37 -1.45,-0.62 -2.13,-0.74 -0.68,-0.12 -1.46,-0.18 -2.32,-0.18 -3.09,0 -5.41,1.12 -6.96,3.35 -1.55,2.23 -2.32,4.77 -2.32,7.61l0 45.1 -34.52 0.05 0 -54.37c0,-10.15 3.87,-18.97 11.6,-26.47 7.73,-7.49 16.67,-11.25 26.82,-11.27 1.85,0 3.71,0.09 5.56,0.27 1.86,0.19 3.72,0.46 5.57,0.83l0 -0.18z"/>
 </g>
</svg>
