<?xml version="1.0" encoding="UTF-8"?>
<!DOCTYPE svg PUBLIC "-//W3C//DTD SVG 1.1//EN" "http://www.w3.org/Graphics/SVG/1.1/DTD/svg11.dtd">
<!-- Creator: CorelDRAW 2020 (64-Bit) -->
<svg xmlns="http://www.w3.org/2000/svg" xml:space="preserve" width="2480px" height="3508px" version="1.1" shape-rendering="geometricPrecision" text-rendering="geometricPrecision" image-rendering="optimizeQuality" fill-rule="evenodd" clip-rule="evenodd"
viewBox="0 0 2480 3507.43"
 xmlns:xlink="http://www.w3.org/1999/xlink"
 xmlns:xodm="http://www.corel.com/coreldraw/odm/2003">
 <g id="Слой_x0020_1">
  <metadata id="CorelCorpID_0Corel-Layer"/>
  <path fill="none" fill-rule="nonzero" stroke="#2B2A29" stroke-width="8.33" stroke-miterlimit="22.9256" d="M756.91 504.1l0 90.38 -33.98 0 0 -90.38 33.98 0zm-16.9 -40.08c4.46,0.12 8.39,1.76 11.79,4.92 3.4,3.15 5.11,6.96 5.11,11.41 0,4.83 -1.64,8.72 -4.92,11.69 -3.28,2.97 -7.27,4.46 -11.98,4.46 -4.7,0 -8.69,-1.49 -11.97,-4.46 -3.28,-2.97 -4.92,-6.86 -4.92,-11.69 0,-4.45 1.73,-8.26 5.2,-11.41 3.46,-3.16 7.36,-4.73 11.69,-4.73l0 -0.19zm117.34 130.46l-33.6 0 0 -51.03c0,-1.98 -0.56,-3.75 -1.67,-5.29 -1.12,-1.55 -2.79,-2.32 -5.02,-2.32 -2.1,0 -3.74,0.8 -4.92,2.41 -1.17,1.61 -1.76,3.4 -1.76,5.38l0 50.85 -33.61 0 0 -50.48c0,-10.88 3.72,-20.53 11.14,-28.95 7.43,-8.41 16.84,-12.61 28.22,-12.61 12.63,0 22.66,4.39 30.08,13.17 7.43,8.78 11.14,19.24 11.14,31.36l0 47.51zm68.7 -70.33l0 35.44 -15.6 0 0 34.89 -33.42 0 0 -79.24c0,-13.24 4.98,-24.19 14.95,-32.85 9.96,-8.66 21.32,-12.99 34.07,-12.99l0 35.45c-6.31,0.12 -10.4,1.91 -12.26,5.41 -1.85,3.49 -2.78,8.13 -2.78,13.89l15.04 0zm9.84 24.68c0,-12.62 4.58,-23.51 13.74,-32.66 9.16,-9.16 20.05,-13.73 32.67,-13.73 12.88,0 23.95,4.6 33.24,13.82 9.28,9.22 13.92,20.26 13.92,33.13 0,12.74 -4.64,23.75 -13.92,33.03 -9.29,9.28 -20.36,13.92 -33.24,13.92 -12.87,0 -23.82,-4.73 -32.86,-14.2 -9.03,-9.46 -13.55,-20.51 -13.55,-33.12l0 -0.19zm34.53 -0.19c0,3.59 1.18,6.72 3.53,9.38 2.35,2.66 5.26,3.99 8.73,3.99 3.46,0 6.46,-1.21 9,-3.62 2.54,-2.42 3.81,-5.35 3.81,-8.82 0,-3.59 -1.3,-6.59 -3.9,-9 -2.6,-2.41 -5.63,-3.62 -9.1,-3.62 -3.22,0 -6.03,1.18 -8.45,3.53 -2.41,2.35 -3.62,5.13 -3.62,8.35l0 -0.19zm113.81 47.14l0 -35.82c1.24,0.87 2.48,1.58 3.72,2.14 1.23,0.56 2.6,0.83 4.08,0.83 3.59,0 6.69,-1.26 9.28,-3.8 2.6,-2.54 3.9,-5.6 3.9,-9.19 0,-3.83 -1.33,-7.05 -3.99,-9.65 -2.66,-2.6 -5.91,-3.89 -9.75,-3.89 -4.58,0 -7.89,1.57 -9.93,4.73 -2.04,3.15 -3.06,6.77 -3.06,10.85l0 1.49 0 84.99 -34.16 0 0 -88.15c0,-12.99 4.55,-24.18 13.64,-33.59 9.1,-9.4 20.27,-14.1 33.51,-14.1 12.13,0 23.03,4.39 32.68,13.18 9.66,8.78 14.48,19.42 14.48,31.92 0,13.48 -4.36,24.96 -13.09,34.42 -8.72,9.47 -19.96,14.2 -33.7,14.2 -1.23,0 -2.5,-0.03 -3.8,-0.09 -1.3,-0.07 -2.57,-0.22 -3.81,-0.47zm64.24 -46.95c0,-12.62 4.58,-23.51 13.74,-32.66 9.16,-9.16 20.05,-13.73 32.68,-13.73 12.87,0 23.95,4.6 33.23,13.82 9.29,9.22 13.93,20.26 13.93,33.13 0,12.74 -4.64,23.75 -13.93,33.03 -9.28,9.28 -20.36,13.92 -33.23,13.92 -12.87,0 -23.83,-4.73 -32.86,-14.2 -9.04,-9.46 -13.56,-20.51 -13.56,-33.12l0 -0.19zm34.54 -0.19c0,3.59 1.17,6.72 3.52,9.38 2.36,2.66 5.26,3.99 8.73,3.99 3.47,0 6.47,-1.21 9.01,-3.62 2.53,-2.42 3.8,-5.35 3.8,-8.82 0,-3.59 -1.3,-6.59 -3.9,-9 -2.6,-2.41 -5.63,-3.62 -9.09,-3.62 -3.22,0 -6.04,1.18 -8.45,3.53 -2.42,2.35 -3.62,5.13 -3.62,8.35l0 -0.19zm107.87 -77.94l0 123.78 -33.98 0 0 -123.78 33.98 0zm32.49 163.31l0 -29.51c1.73,0.75 3.53,1.43 5.38,2.04 1.86,0.62 3.78,0.93 5.76,0.93 5.44,0 10.15,-1.85 14.11,-5.56 3.96,-3.72 6.62,-7.98 7.98,-12.81 -2.6,1.48 -5.35,2.75 -8.26,3.8 -2.91,1.06 -5.85,1.58 -8.82,1.58 -8.29,0 -15.19,-3.18 -20.7,-9.56 -5.51,-6.37 -8.26,-13.51 -8.26,-21.43l0 -59.39 33.97 0 0 48.44c0,2.1 0.5,4.02 1.49,5.75 0.99,1.74 2.66,2.6 5.01,2.6 2.73,0 4.46,-0.93 5.2,-2.78 0.74,-1.86 1.12,-3.9 1.12,-6.13l0 -47.88 34.16 0 0 81.84c0,14.23 -4.92,26.39 -14.76,36.47 -9.84,10.08 -21.94,15.13 -36.3,15.13 -2.97,0 -5.88,-0.28 -8.73,-0.84 -2.84,-0.56 -5.63,-1.45 -8.35,-2.69zm212.21 -39.53l-33.97 0 0 -46.76c0,-0.25 0,-0.62 0,-1.12 0,-0.49 -0.07,-0.99 -0.19,-1.48 -0.12,-1.73 -0.56,-3.31 -1.3,-4.73 -0.74,-1.43 -2.17,-2.14 -4.27,-2.14l-0.19 0c-1.98,0.25 -3.37,1.11 -4.17,2.6 -0.81,1.48 -1.27,3.06 -1.4,4.79 -0.12,0.37 -0.18,0.78 -0.18,1.21 0,0.43 0,0.84 0,1.21l0 46.42 -33.61 0 0 -46.76c0,-0.25 0,-0.56 0,-0.93 0,-0.37 0,-0.74 0,-1.12 -0.12,-1.85 -0.58,-3.55 -1.39,-5.1 -0.8,-1.55 -2.26,-2.32 -4.36,-2.32l-0.19 0c-1.98,0.25 -3.34,1.08 -4.08,2.51 -0.75,1.42 -1.18,2.9 -1.3,4.51 -0.13,0.5 -0.19,0.96 -0.19,1.39 0,0.44 0,0.9 0,1.4l0 46.42 -33.42 0 0 -56.79c0,-9.27 3.44,-17.47 10.31,-24.59 6.87,-7.11 15.01,-10.66 24.41,-10.66 5.82,0 10.86,1.14 15.13,3.43 4.27,2.29 8.39,5.41 12.35,9.37 3.59,-3.59 7.52,-6.62 11.79,-9.09 4.27,-2.48 9.07,-3.71 14.39,-3.71 11.88,0 20.82,3.98 26.83,11.96 6,7.98 9,17.48 9,28.49l0 51.59zm108.62 -39.71l-53.11 0c-0.24,-0.99 -0.49,-2.04 -0.74,-3.16 -0.24,-1.11 -0.37,-2.22 -0.37,-3.34 0,-1.73 0.16,-3.34 0.47,-4.82 0.3,-1.49 0.71,-2.97 1.2,-4.46l18.57 0c-0.5,-2.9 -1.8,-5.29 -3.9,-7.17 -2.1,-1.89 -4.7,-2.85 -7.8,-2.85 -4.45,0 -7.86,1.61 -10.21,4.83 -2.35,3.21 -3.84,6.74 -4.46,10.58 0,0.61 -0.03,1.23 -0.09,1.85 -0.06,0.62 -0.09,1.24 -0.09,1.86 0,0.74 0.03,1.48 0.09,2.22 0.06,0.75 0.16,1.55 0.28,2.42 0.62,3.71 2.07,7.14 4.36,10.3 2.29,3.15 5.54,4.73 9.75,4.73 2.23,0 4.15,-0.47 5.76,-1.39 1.6,-0.93 3.09,-2.14 4.45,-3.62l19.5 23.01c-4.21,3.46 -8.91,6.09 -14.11,7.89 -5.2,1.79 -10.52,2.69 -15.97,2.69 -13.25,0 -24.48,-4.7 -33.7,-14.11 -9.22,-9.4 -13.83,-20.66 -13.83,-33.77 0,-12.5 4.73,-23.29 14.2,-32.38 9.47,-9.1 20.4,-13.64 32.77,-13.64 12.63,0 23.64,4.48 33.05,13.48 9.41,9 14.11,19.86 14.11,32.57 0,0.49 0,0.99 0,1.48 0,0.47 0,1.02 0,1.64 -0.12,0.5 -0.18,0.99 -0.18,1.49 0,0.49 0,1.05 0,1.67zm64.61 -51.03l0 36c-0.25,0 -0.5,-0.07 -0.75,-0.19 -0.24,-0.12 -0.43,-0.19 -0.55,-0.19 -0.75,-0.37 -1.46,-0.61 -2.14,-0.74 -0.68,-0.12 -1.45,-0.18 -2.32,-0.18 -3.09,0 -5.41,1.11 -6.96,3.34 -1.55,2.22 -2.32,4.76 -2.32,7.61l0 45.09 -34.54 0 0 -54.37c0,-10.15 3.87,-18.96 11.61,-26.45 7.73,-7.48 16.68,-11.22 26.83,-11.22 1.85,0 3.71,0.09 5.57,0.27 1.85,0.19 3.71,0.47 5.57,0.84l0 0.19z"/>
 </g>
</svg>
