<?xml version="1.0" encoding="UTF-8"?>
<!DOCTYPE svg PUBLIC "-//W3C//DTD SVG 1.1//EN" "http://www.w3.org/Graphics/SVG/1.1/DTD/svg11.dtd">
<!-- Creator: CorelDRAW 2020 (64-Bit) -->
<svg xmlns="http://www.w3.org/2000/svg" xml:space="preserve" width="980px" height="186px" version="1.1" shape-rendering="geometricPrecision" text-rendering="geometricPrecision" image-rendering="optimizeQuality" fill-rule="evenodd" clip-rule="evenodd"
viewBox="0 0 980 186.35"
 xmlns:xlink="http://www.w3.org/1999/xlink"
 xmlns:xodm="http://www.corel.com/coreldraw/odm/2003">
 <g id="Слой_x0020_1">
  <metadata id="CorelCorpID_0Corel-Layer"/>
  <path fill="#FEFEFE" fill-rule="nonzero" d="M2.49 -953.88l0 90.42 -33.98 0.05 0 -90.42 33.98 -0.05zm-16.9 -40.08c4.46,0.11 8.39,1.75 11.79,4.9 3.41,3.15 5.11,6.95 5.11,11.41 0,4.83 -1.64,8.73 -4.92,11.71 -3.28,2.97 -7.27,4.46 -11.98,4.47 -4.7,0.01 -8.69,-1.47 -11.97,-4.44 -3.28,-2.96 -4.92,-6.86 -4.92,-11.69 0,-4.45 1.73,-8.26 5.2,-11.43 3.46,-3.16 7.36,-4.74 11.69,-4.75l0 -0.18zm117.35 130.34l-33.61 0.06 0 -51.06c0,-1.98 -0.56,-3.75 -1.67,-5.29 -1.12,-1.55 -2.79,-2.32 -5.01,-2.32 -2.11,0.01 -3.75,0.81 -4.92,2.42 -1.18,1.62 -1.77,3.41 -1.77,5.39l0 50.88 -33.6 0.05 0 -50.51c0,-10.89 3.71,-20.55 11.13,-28.98 7.43,-8.42 16.84,-12.65 28.23,-12.66 12.62,-0.02 22.65,4.36 30.07,13.13 7.43,8.78 11.15,19.23 11.15,31.36l0 47.53zm68.69 -70.47l0 35.46 -15.59 0.03 0 34.9 -33.42 0.05 0 -79.28c0,-13.24 4.98,-24.2 14.94,-32.88 9.97,-8.68 21.32,-13.03 34.07,-13.05l0 35.46c-6.31,0.14 -10.39,1.94 -12.25,5.44 -1.86,3.5 -2.79,8.14 -2.79,13.89l15.04 -0.02zm9.84 24.68c0,-12.62 4.58,-23.52 13.74,-32.7 9.16,-9.17 20.06,-13.77 32.68,-13.79 12.87,-0.02 23.95,4.58 33.24,13.79 9.28,9.2 13.92,20.24 13.92,33.12 0,12.75 -4.64,23.77 -13.92,33.07 -9.29,9.29 -20.37,13.95 -33.24,13.97 -12.87,0.02 -23.83,-4.7 -32.86,-14.15 -9.04,-9.46 -13.56,-20.5 -13.56,-33.12l0 -0.19zm34.54 -0.24c0,3.59 1.17,6.72 3.53,9.37 2.35,2.66 5.26,3.99 8.72,3.98 3.47,0 6.47,-1.21 9.01,-3.63 2.53,-2.42 3.8,-5.36 3.8,-8.83 0,-3.59 -1.3,-6.59 -3.9,-9 -2.59,-2.41 -5.63,-3.61 -9.09,-3.6 -3.22,0 -6.04,1.18 -8.45,3.54 -2.41,2.35 -3.62,5.14 -3.62,8.36l0 -0.19zm113.81 46.99l0 -35.83c1.24,0.86 2.48,1.57 3.72,2.13 1.23,0.55 2.6,0.83 4.08,0.83 3.59,-0.01 6.69,-1.28 9.28,-3.83 2.6,-2.54 3.9,-5.6 3.9,-9.19 0,-3.84 -1.33,-7.05 -3.99,-9.65 -2.66,-2.6 -5.91,-3.89 -9.75,-3.88 -4.58,0 -7.89,1.59 -9.93,4.74 -2.04,3.16 -3.06,6.79 -3.06,10.87l0 1.49 0 85.03 -34.17 0.05 0 -88.19c0,-12.99 4.55,-24.2 13.65,-33.62 9.1,-9.43 20.27,-14.15 33.51,-14.17 12.13,-0.01 23.03,4.36 32.68,13.14 9.66,8.77 14.48,19.41 14.48,31.91 0,13.49 -4.36,24.98 -13.09,34.46 -8.72,9.48 -19.96,14.23 -33.69,14.25 -1.24,0.01 -2.51,-0.02 -3.81,-0.08 -1.3,-0.06 -2.57,-0.21 -3.81,-0.46zm64.25 -47.07c0,-12.63 4.57,-23.53 13.73,-32.7 9.16,-9.17 20.06,-13.77 32.68,-13.79 12.88,-0.02 23.95,4.58 33.24,13.78 9.28,9.21 13.92,20.25 13.92,33.12 0,12.75 -4.64,23.78 -13.92,33.08 -9.29,9.29 -20.36,13.95 -33.24,13.97 -12.87,0.02 -23.83,-4.7 -32.86,-14.15 -9.04,-9.46 -13.55,-20.5 -13.55,-33.12l0 -0.19zm34.53 -0.24c0,3.59 1.18,6.71 3.53,9.37 2.35,2.66 5.26,3.99 8.72,3.98 3.47,0 6.47,-1.22 9.01,-3.63 2.54,-2.42 3.8,-5.36 3.8,-8.83 0,-3.59 -1.29,-6.59 -3.89,-9 -2.6,-2.41 -5.64,-3.61 -9.1,-3.6 -3.22,0 -6.04,1.18 -8.45,3.54 -2.41,2.35 -3.62,5.14 -3.62,8.36l0 -0.19zm107.87 -78.14l0 123.84 -33.97 0.05 0 -123.84 33.97 -0.05zm32.5 163.34l0 -29.52c1.73,0.73 3.52,1.41 5.38,2.03 1.86,0.61 3.77,0.92 5.76,0.92 5.44,-0.01 10.15,-1.87 14.11,-5.59 3.96,-3.72 6.62,-8 7.98,-12.83 -2.6,1.49 -5.35,2.77 -8.26,3.82 -2.91,1.06 -5.85,1.59 -8.82,1.59 -8.29,0.02 -15.2,-3.16 -20.7,-9.53 -5.51,-6.36 -8.27,-13.51 -8.27,-21.43l0 -59.41 33.98 -0.05 0 48.45c0,2.11 0.5,4.03 1.49,5.76 0.99,1.73 2.66,2.59 5.01,2.59 2.72,0 4.46,-0.94 5.2,-2.79 0.74,-1.86 1.11,-3.9 1.11,-6.13l0 -47.9 34.17 -0.06 0 81.88c0,14.24 -4.92,26.41 -14.77,36.51 -9.84,10.1 -21.94,15.17 -36.29,15.19 -2.97,0 -5.88,-0.27 -8.73,-0.82 -2.85,-0.56 -5.63,-1.45 -8.35,-2.68zm212.21 -39.87l-33.97 0.05 0 -46.79c0,-0.25 0,-0.62 0,-1.11 0,-0.5 -0.07,-0.99 -0.19,-1.49 -0.12,-1.73 -0.56,-3.31 -1.3,-4.73 -0.74,-1.42 -2.16,-2.13 -4.27,-2.13l-0.18 0c-1.98,0.25 -3.38,1.12 -4.18,2.61 -0.81,1.48 -1.27,3.06 -1.39,4.79 -0.13,0.38 -0.19,0.78 -0.19,1.21 0,0.43 0,0.84 0,1.21l0 46.45 -33.61 0.05 0 -46.79c0,-0.25 0,-0.56 0,-0.93 0,-0.37 0,-0.74 0,-1.11 -0.12,-1.86 -0.58,-3.56 -1.39,-5.11 -0.8,-1.54 -2.26,-2.32 -4.36,-2.31l-0.19 0c-1.98,0.25 -3.34,1.09 -4.08,2.51 -0.75,1.43 -1.18,2.91 -1.3,4.52 -0.13,0.5 -0.19,0.96 -0.19,1.39 0,0.44 0,0.9 0,1.4l0 46.44 -33.42 0.06 0 -56.82c0,-9.28 3.44,-17.49 10.31,-24.62 6.87,-7.12 15.01,-10.69 24.41,-10.71 5.82,-0.01 10.86,1.13 15.13,3.41 4.27,2.29 8.39,5.41 12.35,9.36 3.59,-3.59 7.52,-6.63 11.79,-9.12 4.27,-2.48 9.07,-3.72 14.39,-3.73 11.88,-0.02 20.83,3.96 26.83,11.93 6,7.98 9,17.48 9,28.49l0 51.62zm108.62 -39.9l-53.1 0.08c-0.25,-0.99 -0.5,-2.04 -0.74,-3.16 -0.25,-1.11 -0.37,-2.22 -0.37,-3.34 0,-1.73 0.15,-3.34 0.46,-4.83 0.31,-1.48 0.71,-2.97 1.21,-4.45l18.56 -0.03c-0.49,-2.91 -1.79,-5.29 -3.9,-7.17 -2.1,-1.89 -4.7,-2.84 -7.79,-2.84 -4.46,0.01 -7.86,1.62 -10.22,4.84 -2.35,3.23 -3.83,6.75 -4.45,10.59 0,0.62 -0.03,1.24 -0.09,1.86 -0.07,0.62 -0.1,1.24 -0.1,1.86 0,0.74 0.03,1.48 0.1,2.23 0.06,0.74 0.15,1.54 0.27,2.41 0.62,3.71 2.08,7.14 4.37,10.3 2.29,3.15 5.54,4.72 9.75,4.72 2.22,-0.01 4.14,-0.47 5.75,-1.4 1.61,-0.94 3.09,-2.14 4.46,-3.63l19.49 22.99c-4.21,3.47 -8.91,6.11 -14.11,7.91 -5.2,1.81 -10.52,2.71 -15.97,2.72 -13.24,0.02 -24.47,-4.67 -33.69,-14.06 -9.23,-9.39 -13.84,-20.65 -13.84,-33.77 0,-12.5 4.74,-23.31 14.21,-32.42 9.47,-9.11 20.39,-13.68 32.77,-13.7 12.62,-0.02 23.64,4.45 33.05,13.44 9.4,8.99 14.11,19.85 14.11,32.57 0,0.49 0,0.99 0,1.48 0,0.47 0,1.02 0,1.64 -0.13,0.5 -0.19,0.99 -0.19,1.49 0,0.49 0,1.05 0,1.67zm64.61 -51.53l0 36.39c-0.24,0 -0.49,-0.06 -0.74,-0.18 -0.25,-0.12 -0.43,-0.19 -0.56,-0.19 -0.74,-0.37 -1.45,-0.61 -2.13,-0.74 -0.68,-0.12 -1.45,-0.18 -2.32,-0.18 -3.1,0.01 -5.42,1.12 -6.96,3.35 -1.55,2.23 -2.33,4.77 -2.33,7.62l0 45.12 -34.53 0.05 0 -54.4c0,-10.15 3.87,-18.98 11.6,-26.48 7.74,-7.5 16.68,-11.25 26.83,-11.27 1.86,0 3.72,0.09 5.57,0.27 1.86,0.18 3.72,0.46 5.57,0.83l0 -0.19z"/>
  <path fill="#FEFEFE" fill-rule="nonzero" stroke="#2B2A29" stroke-width="8.34" stroke-miterlimit="22.9256" d="M38.02 44.62l0 90.42 -33.46 0 0 -90.42 33.46 0zm-16.64 -40.1c4.39,0.12 8.26,1.76 11.61,4.92 3.35,3.15 5.03,6.96 5.03,11.42 0,4.82 -1.62,8.72 -4.85,11.69 -3.23,2.97 -7.16,4.46 -11.79,4.46 -4.63,0 -8.56,-1.49 -11.79,-4.46 -3.23,-2.97 -4.85,-6.87 -4.85,-11.69 0,-4.46 1.71,-8.27 5.12,-11.42 3.41,-3.16 7.25,-4.74 11.52,-4.74l0 -0.18zm115.55 130.52l-33.09 0 0 -51.06c0,-1.98 -0.55,-3.74 -1.65,-5.29 -1.09,-1.55 -2.74,-2.32 -4.93,-2.32 -2.08,0 -3.69,0.8 -4.85,2.41 -1.16,1.61 -1.74,3.41 -1.74,5.39l0 50.87 -33.09 0 0 -50.5c0,-10.89 3.66,-20.55 10.97,-28.96 7.31,-8.42 16.58,-12.63 27.79,-12.63 12.44,0 22.31,4.39 29.62,13.18 7.31,8.79 10.97,19.25 10.97,31.38l0 47.53zm67.65 -70.37l0 35.47 -15.36 0 0 34.9 -32.91 0 0 -79.28c0,-13.24 4.91,-24.2 14.72,-32.86 9.81,-8.67 21,-13 33.55,-13l0 35.46c-6.21,0.13 -10.24,1.92 -12.07,5.42 -1.82,3.5 -2.74,8.14 -2.74,13.89l14.81 0zm9.69 24.7c0,-12.63 4.51,-23.52 13.53,-32.68 9.02,-9.16 19.75,-13.74 32.18,-13.74 12.68,0 23.59,4.61 32.73,13.83 9.14,9.22 13.71,20.27 13.71,33.14 0,12.75 -4.57,23.77 -13.71,33.05 -9.14,9.29 -20.05,13.93 -32.73,13.93 -12.68,0 -23.46,-4.74 -32.36,-14.21 -8.9,-9.46 -13.35,-20.51 -13.35,-33.14l0 -0.18zm34.01 -0.19c0,3.59 1.16,6.72 3.47,9.38 2.32,2.66 5.18,3.99 8.6,3.99 3.41,0 6.37,-1.21 8.87,-3.62 2.49,-2.41 3.74,-5.35 3.74,-8.82 0,-3.59 -1.28,-6.59 -3.84,-9 -2.56,-2.42 -5.54,-3.63 -8.96,-3.63 -3.17,0 -5.94,1.18 -8.31,3.53 -2.38,2.35 -3.57,5.14 -3.57,8.36l0 -0.19zm112.08 47.16l0 -35.83c1.22,0.86 2.44,1.58 3.65,2.13 1.22,0.56 2.56,0.84 4.03,0.84 3.53,0 6.58,-1.27 9.14,-3.81 2.56,-2.54 3.84,-5.6 3.84,-9.19 0,-3.84 -1.31,-7.05 -3.93,-9.65 -2.62,-2.6 -5.82,-3.9 -9.6,-3.9 -4.51,0 -7.77,1.58 -9.78,4.73 -2.01,3.16 -3.02,6.78 -3.02,10.86l0 1.49 0 85.04 -33.64 0 0 -88.2c0,-12.99 4.48,-24.2 13.44,-33.6 8.96,-9.41 19.96,-14.11 33,-14.11 11.94,0 22.67,4.39 32.18,13.18 9.51,8.79 14.26,19.43 14.26,31.93 0,13.5 -4.3,24.98 -12.89,34.44 -8.59,9.47 -19.66,14.21 -33.19,14.21 -1.21,0 -2.46,-0.03 -3.74,-0.09 -1.28,-0.07 -2.53,-0.22 -3.75,-0.47zm63.26 -46.97c0,-12.63 4.51,-23.52 13.53,-32.68 9.02,-9.16 19.75,-13.74 32.18,-13.74 12.68,0 23.58,4.61 32.73,13.83 9.14,9.22 13.71,20.27 13.71,33.14 0,12.75 -4.57,23.77 -13.71,33.05 -9.15,9.29 -20.05,13.93 -32.73,13.93 -12.68,0 -23.46,-4.74 -32.36,-14.21 -8.9,-9.46 -13.35,-20.51 -13.35,-33.14l0 -0.18zm34.01 -0.19c0,3.59 1.16,6.72 3.47,9.38 2.32,2.66 5.18,3.99 8.6,3.99 3.41,0 6.36,-1.21 8.86,-3.62 2.5,-2.41 3.75,-5.35 3.75,-8.82 0,-3.59 -1.28,-6.59 -3.84,-9 -2.56,-2.42 -5.55,-3.63 -8.96,-3.63 -3.17,0 -5.94,1.18 -8.32,3.53 -2.37,2.35 -3.56,5.14 -3.56,8.36l0 -0.19zm106.23 -77.98l0 123.84 -33.46 0 0 -123.84 33.46 0zm31.99 163.39l0 -29.52c1.71,0.74 3.48,1.42 5.31,2.04 1.82,0.62 3.71,0.93 5.66,0.93 5.37,0 10,-1.86 13.9,-5.57 3.9,-3.71 6.52,-7.98 7.86,-12.81 -2.56,1.48 -5.27,2.75 -8.14,3.8 -2.86,1.06 -5.76,1.58 -8.68,1.58 -8.17,0 -14.96,-3.19 -20.39,-9.56 -5.42,-6.37 -8.13,-13.52 -8.13,-21.44l0 -59.42 33.46 0 0 48.46c0,2.1 0.48,4.02 1.46,5.76 0.97,1.73 2.62,2.6 4.93,2.6 2.69,0 4.39,-0.93 5.12,-2.79 0.74,-1.86 1.1,-3.9 1.1,-6.13l0 -47.9 33.64 0 0 81.88c0,14.24 -4.84,26.4 -14.53,36.48 -9.69,10.09 -21.61,15.14 -35.75,15.14 -2.92,0 -5.79,-0.28 -8.59,-0.84 -2.8,-0.56 -5.55,-1.45 -8.23,-2.69zm208.98 -39.55l-33.45 0 0 -46.79c0,-0.24 0,-0.62 0,-1.11 0,-0.5 -0.07,-0.99 -0.19,-1.49 -0.12,-1.73 -0.55,-3.31 -1.28,-4.73 -0.73,-1.42 -2.13,-2.14 -4.2,-2.14l-0.19 0c-1.94,0.25 -3.32,1.12 -4.11,2.6 -0.79,1.49 -1.25,3.07 -1.37,4.8 -0.12,0.37 -0.18,0.77 -0.18,1.21 0,0.43 0,0.83 0,1.2l0 46.45 -33.1 0 0 -46.79c0,-0.24 0,-0.55 0,-0.93 0,-0.37 0,-0.74 0,-1.11 -0.12,-1.86 -0.58,-3.56 -1.37,-5.1 -0.79,-1.55 -2.22,-2.33 -4.3,-2.33l-0.18 0c-1.95,0.25 -3.29,1.09 -4.02,2.51 -0.73,1.42 -1.16,2.91 -1.28,4.52 -0.12,0.49 -0.18,0.96 -0.18,1.39 0,0.43 0,0.9 0,1.39l0 46.45 -32.91 0 0 -56.81c0,-9.29 3.38,-17.49 10.14,-24.6 6.77,-7.12 14.78,-10.68 24.05,-10.68 5.73,0 10.69,1.15 14.9,3.44 4.2,2.29 8.26,5.41 12.16,9.37 3.53,-3.59 7.4,-6.62 11.61,-9.1 4.2,-2.47 8.93,-3.71 14.17,-3.71 11.7,0 20.51,3.99 26.42,11.98 5.91,7.98 8.86,17.48 8.86,28.5l0 51.61zm106.96 -39.73l-52.29 0c-0.24,-0.99 -0.49,-2.04 -0.73,-3.16 -0.24,-1.11 -0.36,-2.23 -0.36,-3.34 0,-1.73 0.15,-3.34 0.45,-4.83 0.31,-1.48 0.7,-2.97 1.19,-4.45l18.28 0c-0.48,-2.91 -1.76,-5.3 -3.84,-7.18 -2.07,-1.89 -4.63,-2.85 -7.67,-2.85 -4.39,0 -7.74,1.61 -10.06,4.83 -2.32,3.22 -3.78,6.74 -4.39,10.58 0,0.62 -0.03,1.24 -0.09,1.86 -0.06,0.62 -0.09,1.24 -0.09,1.85 0,0.75 0.03,1.49 0.09,2.23 0.06,0.74 0.15,1.55 0.28,2.42 0.61,3.71 2.04,7.15 4.29,10.3 2.26,3.16 5.46,4.74 9.6,4.74 2.2,0 4.08,-0.47 5.67,-1.4 1.58,-0.93 3.04,-2.13 4.39,-3.62l19.19 23.03c-4.14,3.46 -8.77,6.09 -13.89,7.89 -5.12,1.79 -10.36,2.69 -15.72,2.69 -13.05,0 -24.11,-4.71 -33.19,-14.11 -9.08,-9.41 -13.62,-20.67 -13.62,-33.79 0,-12.51 4.66,-23.31 13.99,-32.4 9.32,-9.1 20.08,-13.65 32.27,-13.65 12.43,0 23.28,4.49 32.54,13.49 9.27,9.01 13.9,19.87 13.9,32.59 0,0.49 0,0.99 0,1.48 0,0.47 0,1.02 0,1.64 -0.13,0.5 -0.19,0.99 -0.19,1.49 0,0.49 0,1.05 0,1.67zm63.63 -51.25l0 5.18 0 0.06 0 0.02 0 0.51 0 30.44c-0.24,0 -0.49,-0.06 -0.73,-0.19 -0.24,-0.12 -0.43,-0.18 -0.55,-0.18 -0.73,-0.37 -1.43,-0.62 -2.1,-0.74 -0.67,-0.13 -1.43,-0.19 -2.29,-0.19 -3.04,0 -5.33,1.11 -6.85,3.34 -1.53,2.23 -2.29,4.77 -2.29,7.61l0 45.12 -34.01 0 0 -54.4c0,-10.15 3.81,-18.97 11.43,-26.46 7.62,-7.49 16.43,-11.23 26.42,-11.23 1.66,0 3.31,0.08 4.96,0.23 0.18,0.01 0.35,0.03 0.53,0.05 0.37,0.04 0.74,0.08 1.11,0.12 0.02,0 0.04,0.01 0.05,0.01 0.07,0.01 0.15,0.02 0.22,0.03 1.37,0.17 2.73,0.4 4.1,0.67l0 0z"/>
 </g>
</svg>
