<?xml version="1.0" encoding="UTF-8"?>
<!DOCTYPE svg PUBLIC "-//W3C//DTD SVG 1.1//EN" "http://www.w3.org/Graphics/SVG/1.1/DTD/svg11.dtd">
<!-- Creator: CorelDRAW 2020 (64-Bit) -->
<svg xmlns="http://www.w3.org/2000/svg" xml:space="preserve" width="2480px" height="3508px" version="1.1" shape-rendering="geometricPrecision" text-rendering="geometricPrecision" image-rendering="optimizeQuality" fill-rule="evenodd" clip-rule="evenodd"
viewBox="0 0 2480 3507.43"
 xmlns:xlink="http://www.w3.org/1999/xlink"
 xmlns:xodm="http://www.corel.com/coreldraw/odm/2003">
 <g id="Слой_x0020_1">
  <metadata id="CorelCorpID_0Corel-Layer"/>
  <path fill="#FEFEFE" fill-rule="nonzero" stroke="#2B2A29" stroke-width="8.33" stroke-miterlimit="22.9256" d="M751.97 931.28l0 90.37 -33.96 0 0 -90.37 33.96 0zm-16.88 -40.09c4.45,0.13 8.38,1.76 11.78,4.92 3.4,3.15 5.1,6.96 5.1,11.41 0,4.83 -1.64,8.72 -4.91,11.69 -3.28,2.97 -7.27,4.46 -11.97,4.46 -4.71,0 -8.7,-1.49 -11.97,-4.46 -3.28,-2.97 -4.92,-6.86 -4.92,-11.69 0,-4.45 1.73,-8.26 5.19,-11.41 3.47,-3.16 7.37,-4.73 11.7,-4.73l0 -0.19zm117.28 130.46l-33.59 0 0 -51.03c0,-1.98 -0.55,-3.74 -1.67,-5.29 -1.11,-1.55 -2.78,-2.32 -5.01,-2.32 -2.1,0 -3.74,0.8 -4.92,2.41 -1.17,1.61 -1.76,3.4 -1.76,5.39l0 50.84 -33.59 0 0 -50.47c0,-10.89 3.71,-20.54 11.14,-28.95 7.42,-8.42 16.82,-12.62 28.2,-12.62 12.62,0 22.64,4.39 30.07,13.17 7.42,8.79 11.13,19.24 11.13,31.37l0 47.5zm68.67 -70.33l0 35.44 -15.59 0 0 34.89 -33.41 0 0 -79.24c0,-13.24 4.98,-24.19 14.94,-32.85 9.96,-8.66 21.31,-12.99 34.06,-12.99l0 35.45c-6.31,0.12 -10.39,1.92 -12.25,5.41 -1.86,3.5 -2.78,8.14 -2.78,13.89l15.03 0zm9.83 24.68c0,-12.62 4.58,-23.51 13.74,-32.66 9.15,-9.16 20.04,-13.73 32.66,-13.73 12.87,0 23.94,4.6 33.22,13.82 9.28,9.22 13.92,20.26 13.92,33.13 0,12.74 -4.64,23.75 -13.92,33.03 -9.28,9.28 -20.35,13.92 -33.22,13.92 -12.87,0 -23.82,-4.73 -32.85,-14.2 -9.03,-9.46 -13.55,-20.5 -13.55,-33.12l0 -0.19zm34.52 -0.18c0,3.58 1.18,6.71 3.53,9.37 2.35,2.66 5.26,3.99 8.72,3.99 3.46,0 6.46,-1.21 9,-3.62 2.54,-2.41 3.8,-5.35 3.8,-8.82 0,-3.58 -1.29,-6.58 -3.89,-9 -2.6,-2.41 -5.63,-3.62 -9.1,-3.62 -3.21,0 -6.03,1.18 -8.44,3.53 -2.41,2.35 -3.62,5.13 -3.62,8.35l0 -0.18zm113.76 47.13l0 -35.81c1.24,0.86 2.48,1.57 3.71,2.13 1.24,0.56 2.6,0.84 4.09,0.84 3.58,0 6.68,-1.27 9.27,-3.81 2.6,-2.54 3.9,-5.6 3.9,-9.19 0,-3.83 -1.33,-7.05 -3.99,-9.65 -2.66,-2.59 -5.91,-3.89 -9.74,-3.89 -4.58,0 -7.89,1.58 -9.93,4.73 -2.04,3.15 -3.06,6.77 -3.06,10.86l0 1.48 0 85 -34.15 0 0 -88.15c0,-12.99 4.55,-24.19 13.64,-33.59 9.1,-9.41 20.26,-14.11 33.5,-14.11 12.12,0 23.01,4.39 32.66,13.18 9.65,8.78 14.48,19.42 14.48,31.92 0,13.48 -4.36,24.96 -13.09,34.42 -8.72,9.47 -19.95,14.2 -33.68,14.2 -1.24,0 -2.51,-0.03 -3.8,-0.09 -1.3,-0.07 -2.57,-0.22 -3.81,-0.47zm64.21 -46.95c0,-12.62 4.58,-23.51 13.73,-32.66 9.16,-9.16 20.05,-13.73 32.67,-13.73 12.86,0 23.94,4.6 33.22,13.82 9.28,9.22 13.91,20.26 13.91,33.13 0,12.74 -4.63,23.75 -13.91,33.03 -9.28,9.28 -20.36,13.92 -33.22,13.92 -12.87,0 -23.82,-4.73 -32.85,-14.2 -9.03,-9.46 -13.55,-20.5 -13.55,-33.12l0 -0.19zm34.52 -0.18c0,3.58 1.18,6.71 3.53,9.37 2.35,2.66 5.25,3.99 8.72,3.99 3.46,0 6.46,-1.21 9,-3.62 2.54,-2.41 3.8,-5.35 3.8,-8.82 0,-3.58 -1.3,-6.58 -3.89,-9 -2.6,-2.41 -5.63,-3.62 -9.1,-3.62 -3.21,0 -6.03,1.18 -8.44,3.53 -2.41,2.35 -3.62,5.13 -3.62,8.35l0 -0.18zm107.82 -77.95l0 123.78 -33.96 0 0 -123.78 33.96 0zm32.48 163.31l0 -29.5c1.73,0.74 3.52,1.42 5.38,2.04 1.86,0.61 3.77,0.92 5.75,0.92 5.45,0 10.15,-1.85 14.11,-5.56 3.96,-3.71 6.62,-7.98 7.98,-12.81 -2.6,1.49 -5.35,2.75 -8.26,3.81 -2.91,1.05 -5.85,1.57 -8.82,1.57 -8.29,0 -15.18,-3.18 -20.69,-9.55 -5.5,-6.37 -8.26,-13.52 -8.26,-21.44l0 -59.38 33.96 0 0 48.43c0,2.11 0.5,4.02 1.49,5.76 0.99,1.73 2.66,2.59 5.01,2.59 2.72,0 4.45,-0.92 5.2,-2.78 0.74,-1.86 1.11,-3.9 1.11,-6.12l0 -47.88 34.15 0 0 81.84c0,14.22 -4.92,26.38 -14.76,36.46 -9.83,10.09 -21.93,15.13 -36.28,15.13 -2.97,0 -5.87,-0.28 -8.72,-0.84 -2.85,-0.55 -5.63,-1.45 -8.35,-2.69zm212.12 -39.53l-33.96 0 0 -46.76c0,-0.25 0,-0.62 0,-1.12 0,-0.49 -0.07,-0.99 -0.19,-1.48 -0.12,-1.73 -0.56,-3.31 -1.3,-4.73 -0.74,-1.43 -2.17,-2.14 -4.27,-2.14l-0.18 0c-1.98,0.25 -3.38,1.12 -4.18,2.6 -0.8,1.49 -1.27,3.06 -1.39,4.8 -0.12,0.37 -0.19,0.77 -0.19,1.2 0,0.43 0,0.84 0,1.21l0 46.42 -33.59 0 0 -46.76c0,-0.25 0,-0.56 0,-0.93 0,-0.37 0,-0.74 0,-1.11 -0.12,-1.86 -0.58,-3.56 -1.39,-5.11 -0.8,-1.54 -2.26,-2.32 -4.36,-2.32l-0.19 0c-1.97,0.25 -3.34,1.09 -4.08,2.51 -0.74,1.42 -1.17,2.91 -1.3,4.51 -0.12,0.5 -0.18,0.96 -0.18,1.4 0,0.43 0,0.89 0,1.39l0 46.42 -33.41 0 0 -56.78c0,-9.28 3.44,-17.48 10.3,-24.59 6.87,-7.12 15,-10.67 24.41,-10.67 5.81,0 10.85,1.14 15.12,3.43 4.27,2.29 8.38,5.41 12.34,9.37 3.59,-3.59 7.52,-6.62 11.79,-9.09 4.27,-2.48 9.06,-3.71 14.38,-3.71 11.88,0 20.82,3.99 26.82,11.97 6,7.98 9,17.47 9,28.48l0 51.59zm108.56 -39.71l-53.08 0c-0.24,-0.99 -0.49,-2.04 -0.74,-3.15 -0.25,-1.12 -0.37,-2.23 -0.37,-3.35 0,-1.73 0.16,-3.34 0.46,-4.82 0.31,-1.49 0.72,-2.97 1.21,-4.45l18.56 0c-0.5,-2.91 -1.79,-5.29 -3.9,-7.18 -2.1,-1.89 -4.7,-2.85 -7.79,-2.85 -4.46,0 -7.86,1.61 -10.21,4.83 -2.35,3.22 -3.83,6.74 -4.45,10.58 0,0.62 -0.03,1.23 -0.1,1.85 -0.06,0.62 -0.09,1.24 -0.09,1.86 0,0.74 0.03,1.48 0.09,2.23 0.07,0.74 0.16,1.54 0.28,2.41 0.62,3.71 2.08,7.14 4.36,10.3 2.29,3.15 5.54,4.73 9.75,4.73 2.22,0 4.14,-0.46 5.75,-1.39 1.61,-0.93 3.09,-2.14 4.45,-3.62l19.49 23.01c-4.21,3.47 -8.91,6.09 -14.1,7.89 -5.2,1.79 -10.52,2.69 -15.96,2.69 -13.24,0 -24.47,-4.7 -33.69,-14.11 -9.21,-9.4 -13.82,-20.66 -13.82,-33.77 0,-12.5 4.73,-23.29 14.19,-32.38 9.47,-9.1 20.39,-13.64 32.76,-13.64 12.62,0 23.63,4.48 33.03,13.48 9.4,9 14.11,19.86 14.11,32.57 0,0.5 0,0.99 0,1.49 0,0.46 0,1.02 0,1.64 -0.13,0.49 -0.19,0.98 -0.19,1.48 0,0.49 0,1.05 0,1.67zm64.58 -51.22l0 5.17 0 0.07 0 0.01 0 0.51 0 30.43c-0.24,0 -0.49,-0.06 -0.74,-0.19 -0.25,-0.12 -0.43,-0.18 -0.56,-0.18 -0.74,-0.37 -1.45,-0.62 -2.13,-0.75 -0.68,-0.12 -1.45,-0.18 -2.32,-0.18 -3.09,0 -5.41,1.11 -6.96,3.34 -1.55,2.23 -2.32,4.76 -2.32,7.61l0 45.09 -34.52 0 0 -54.37c0,-10.15 3.87,-18.96 11.6,-26.45 7.73,-7.48 16.67,-11.22 26.82,-11.22 1.68,0 3.35,0.07 5.03,0.22 0.18,0.02 0.36,0.04 0.54,0.05 0.37,0.04 0.75,0.08 1.12,0.13 0.02,0 0.04,0 0.06,0 0.07,0.01 0.15,0.02 0.22,0.03 1.38,0.17 2.77,0.4 4.16,0.68l0 0z"/>
 </g>
</svg>
