<?xml version="1.0" encoding="UTF-8"?>
<!DOCTYPE svg PUBLIC "-//W3C//DTD SVG 1.1//EN" "http://www.w3.org/Graphics/SVG/1.1/DTD/svg11.dtd">
<!-- Creator: CorelDRAW 2020 (64-Bit) -->
<svg xmlns="http://www.w3.org/2000/svg" xml:space="preserve" width="210mm" height="297mm" version="1.1" style="shape-rendering:geometricPrecision; text-rendering:geometricPrecision; image-rendering:optimizeQuality; fill-rule:evenodd; clip-rule:evenodd"
viewBox="0 0 21000 29700"
 xmlns:xlink="http://www.w3.org/1999/xlink"
 xmlns:xodm="http://www.corel.com/coreldraw/odm/2003">
 <defs>
  <style type="text/css">
   <![CDATA[
    .str0 {stroke:#373435;stroke-width:17.64;stroke-miterlimit:22.9256}
    .fil2 {fill:none;fill-rule:nonzero}
    .fil0 {fill:#E6E7E8}
    .fil5 {fill:#4B4B4D}
    .fil3 {fill:#373435}
    .fil4 {fill:#FEFEFE;fill-rule:nonzero}
    .fil1 {fill:#373435;fill-rule:nonzero}
   ]]>
  </style>
 </defs>
 <g id="Слой_x0020_1">
  <metadata id="CorelCorpID_0Corel-Layer"/>
  <rect class="fil0" x="3725.07" y="886.45" width="14829.11" height="13088.94"/>
  <path class="fil1" d="M6335.28 3144.74l0 -207.37c18.17,0.79 34.36,-2.77 48.58,-10.67 14.22,-7.9 21.33,-21.72 21.33,-41.47 0,-15.01 -5.14,-28.24 -15.41,-39.7 -10.26,-11.45 -23.3,-17.18 -39.1,-17.18 -16.59,0 -29.23,6.32 -37.92,18.96 -8.69,12.64 -13.82,26.46 -15.4,41.47 0,0.79 0,1.78 0,2.97 0,1.18 0,2.17 0,2.96l0 522.57 -235.81 0 0 -507.17c0,-17.38 0.79,-34.95 2.37,-52.73 1.58,-17.77 5.92,-35.35 13.03,-52.73 21.33,-56.88 57.87,-103.68 109.61,-140.42 51.75,-36.73 108.03,-55.1 168.86,-55.1 76.63,0 145.95,27.06 207.96,81.17 62.02,54.11 93.02,121.07 93.02,200.85 0,38.71 -7.9,76.04 -23.7,111.98 -15.8,35.95 -39.5,66.56 -71.09,91.84 -3.16,2.37 -6.13,4.54 -8.89,6.52 -2.77,1.97 -5.33,3.75 -7.7,5.33 -26.07,16.59 -52.14,27.25 -78.21,31.99 -26.07,4.74 -54.12,7.11 -84.13,7.11l-47.4 -1.18zm385.11 -135.09c0,-112.18 41.08,-206.97 123.24,-284.39 82.15,-77.42 178.53,-116.13 289.13,-116.13 111.39,0 208.75,38.71 292.09,116.13 83.35,77.42 125.02,172.61 125.02,285.58 0,114.54 -39.9,214.28 -119.68,299.2 -79.79,84.92 -178.14,127.38 -295.06,127.38 -116.92,0 -215.27,-42.46 -295.06,-127.38 -79.79,-84.92 -119.68,-184.66 -119.68,-299.2l0 -1.19zm231.07 3.56c0,51.34 17.38,96.77 52.14,136.27 34.76,39.5 78.2,59.25 130.34,59.25 52.93,0 96.97,-19.95 132.13,-59.85 35.15,-39.89 52.73,-85.12 52.73,-135.67 0,-49.77 -18.57,-91.44 -55.69,-125.02 -37.13,-33.57 -80.19,-50.36 -129.17,-50.36 -48.19,0 -90.65,17.18 -127.38,51.55 -36.73,34.36 -55.1,76.03 -55.1,125.01l0 -1.18zm708.61 -386.3l232.25 0 0 485.83c0,32.39 10.27,53.33 30.81,62.81 20.54,9.48 44.24,14.22 71.1,14.22l0 227.51 -72.28 0c-79.79,0 -143.38,-26.27 -190.78,-78.8 -47.4,-52.53 -71.1,-117.51 -71.1,-194.93l0 -516.64zm996.56 0l-231.07 351.93 0 438.44 -238.18 0 0 -438.44 -225.14 -351.93 238.17 0 104.28 163.52 118.5 -163.52 233.44 0zm39.1 790.37l0 -592.48c0,-57.67 22.51,-108.03 67.54,-151.09 45.03,-43.05 96.38,-64.58 154.05,-64.58 42.66,0 80.38,9.48 113.16,28.44 32.79,18.96 59.84,46.61 81.17,82.95 17.38,-31.6 42.46,-57.47 75.25,-77.62 32.78,-20.14 67.34,-31.4 103.68,-33.77 1.58,0 3.36,0 5.34,0 1.97,0 4.14,0 6.51,0 74.26,0 130.94,24.69 170.05,74.06 39.1,49.37 58.65,108.82 58.65,178.34l0 555.75 -232.25 0 0 -521.39c0,0 0,-0.59 0,-1.77 0,-1.19 0,-2.18 0,-2.97 -0.79,-9.48 -3.56,-18.36 -8.3,-26.66 -4.74,-8.29 -12.64,-12.44 -23.7,-12.44 -11.85,0 -20.54,4.15 -26.07,12.44 -5.53,8.3 -9.08,17.58 -10.66,27.85 0,1.58 0,2.96 0,4.15 0,1.18 0,2.56 0,4.14l0 516.65 -233.44 0 0 -521.39c0,0 0,-0.59 0,-1.77 0,-1.19 0,-2.18 0,-2.97 -0.79,-9.48 -3.55,-18.36 -8.29,-26.66 -4.74,-8.29 -12.64,-12.44 -23.7,-12.44 -12.64,0 -21.73,4.74 -27.26,14.22 -5.53,9.48 -8.29,19.75 -8.29,30.81l0 520.2 -233.44 0zm1424.33 -483.47l0 177.75 -154.04 0c-0.79,0.79 -1.39,1.18 -1.78,1.18 -0.4,0 -0.99,0 -1.78,0 -13.43,0 -25.87,2.18 -37.33,6.52 -11.45,4.34 -17.18,15.21 -17.18,32.59 0,16.59 5.33,27.25 16,31.99 10.66,4.74 22.32,7.51 34.96,8.3 3.16,0 6.12,0 8.88,0 2.77,0 5.73,0 8.89,0l157.6 -1.19 0 226.33 -193.15 0c-34.76,0 -67.34,-3.55 -97.76,-10.66 -30.41,-7.11 -59.44,-22.91 -87.09,-47.4 -23.7,-21.33 -42.07,-46.61 -55.11,-75.84 -13.03,-29.23 -19.55,-59.65 -19.55,-91.24l0 -349.57c0,-58.46 23.11,-108.82 69.32,-151.08 46.22,-42.27 98.16,-63.4 155.83,-63.4l227.51 -1.18 0 227.51 -157.6 0c-0.79,0.79 -1.38,1.18 -1.78,1.18 -0.39,0 -0.98,0 -1.77,0 -12.64,0 -24.1,2.77 -34.37,8.3 -10.27,5.53 -15.4,15.8 -15.4,30.81 0,14.22 4.74,24.09 14.22,29.62 9.48,5.53 19.75,9.09 30.81,10.67 2.37,0 4.54,0 6.51,0 1.98,0 4.15,0 6.52,0l138.64 -1.19zm406.44 -93.61l0 577.08 -234.62 0 0 -790.37 324.68 0c68.73,0.79 131.53,25.27 188.41,73.46 56.88,48.19 85.32,108.63 85.32,181.3 0,41.87 -8.89,80.98 -26.66,117.32 -17.78,36.33 -43.65,67.54 -77.62,93.61l136.27 324.68 -247.66 0 -113.75 -254.77 0 -202.63c1.58,0.79 3.35,1.19 5.33,1.19 1.97,0 4.15,0 6.52,0 20.54,-0.79 39.49,-5.14 56.87,-13.04 17.38,-7.9 26.07,-24.88 26.07,-50.95 0,-18.96 -6.71,-32.79 -20.14,-41.48 -13.43,-8.69 -28.44,-13.43 -45.03,-14.22 -0.79,0 -1.78,0 -2.96,0 -1.19,0 -2.17,0 -2.96,0l-58.07 -1.18zm713.35 -213.29l0 790.37 -238.18 0 0 -790.37 238.18 0zm150.49 790.37l0 -520.2c0,-76.63 26.86,-143.78 80.58,-201.45 53.71,-57.67 120.07,-86.5 199.07,-86.5 82.16,0 151.28,27.45 207.37,82.36 56.09,54.9 84.13,123.83 84.13,206.77l0 519.02 -235.81 0 0 -511.91c0,-15.01 -4.54,-27.84 -13.62,-38.51 -9.09,-10.66 -21.53,-16 -37.33,-16 -15.8,0 -28.24,5.53 -37.33,16.59 -9.08,11.06 -13.62,24.1 -13.62,39.11l0 510.72 -233.44 0zm955.08 -418.29l0 212.11 -79.39 0 0 206.18 -233.44 0 0 -505.98c0,-80.58 29.43,-151.09 88.28,-211.52 58.85,-60.43 129.36,-90.65 211.52,-90.65 48.98,0 93.81,11.06 134.49,33.18 40.69,22.12 75.64,52.14 104.87,90.06l-193.15 139.82c-4.74,-11.85 -11.26,-22.12 -19.55,-30.81 -8.3,-8.69 -19.16,-13.03 -32.59,-13.03 -19.75,0 -34.76,6.32 -45.03,18.96 -10.27,12.64 -15.4,28.44 -15.4,47.4l0 104.28 79.39 0zm234.63 10.66c0,-112.18 41.08,-206.97 123.24,-284.39 82.15,-77.42 178.53,-116.13 289.13,-116.13 111.39,0 208.75,38.71 292.09,116.13 83.35,77.42 125.02,172.61 125.02,285.58 0,114.54 -39.9,214.28 -119.68,299.2 -79.79,84.92 -178.14,127.38 -295.06,127.38 -116.92,0 -215.27,-42.46 -295.06,-127.38 -79.79,-84.92 -119.68,-184.66 -119.68,-299.2l0 -1.19zm231.07 3.56c0,51.34 17.38,96.77 52.14,136.27 34.76,39.5 78.2,59.25 130.34,59.25 52.93,0 96.97,-19.95 132.13,-59.85 35.15,-39.89 52.73,-85.12 52.73,-135.67 0,-49.77 -18.57,-91.44 -55.69,-125.02 -37.13,-33.57 -80.19,-50.36 -129.17,-50.36 -48.19,0 -90.65,17.18 -127.38,51.55 -36.73,34.36 -55.1,76.03 -55.1,125.01l0 -1.18zm724.01 283.2c0,-35.55 13.04,-67.34 39.11,-95.39 26.07,-28.04 57.27,-42.06 93.61,-42.06 38.71,0 72.09,13.43 100.13,40.29 28.04,26.85 42.07,59.64 42.07,98.35 0,37.92 -13.83,69.91 -41.48,95.98 -27.65,26.07 -60.04,39.1 -97.17,39.1 -37.12,0 -69.12,-13.23 -95.98,-39.69 -26.86,-26.47 -40.29,-58.26 -40.29,-95.39l0 -1.19zm734.69 -274.91l0 207.37 -63.99 0 0 188.41 -238.18 0 0 -509.54c0,-89.26 26.46,-161.35 79.39,-216.25 52.93,-54.91 124.82,-82.36 215.67,-82.36 84.52,0 152.26,29.62 203.22,88.87 50.95,59.25 76.43,129.56 76.43,210.93l0 508.35 -238.18 0 0 -509.54c0,0 0,-0.59 0,-1.77 0,-1.19 0,-2.57 0,-4.15 -0.79,-13.43 -4.94,-26.07 -12.44,-37.92 -7.51,-11.85 -18.76,-18.17 -33.77,-18.96 -17.38,0 -30.42,6.52 -39.11,19.55 -8.69,13.04 -13.03,27.85 -13.03,44.44l0 112.57 63.99 0zm809.33 -396.96l0 225.14c-6.32,-1.58 -12.83,-3.36 -19.55,-5.33 -6.71,-1.98 -13.23,-2.97 -19.55,-2.97 -18.17,0 -33.57,6.92 -46.21,20.74 -12.64,13.83 -18.96,29.43 -18.96,46.81 0,13.43 4.54,29.03 13.62,46.8 9.09,17.78 19.16,37.33 30.22,58.66 11.06,22.12 21.13,45.62 30.22,70.51 9.08,24.88 13.62,51.15 13.62,78.8 0,78.99 -28.83,144.37 -86.5,196.11 -57.67,51.74 -125.21,77.61 -202.63,77.61 -18.17,0 -36.14,-2.37 -53.92,-7.11 -17.77,-4.74 -34.95,-10.66 -51.54,-17.77l0 -229.88c9.48,6.32 19.16,11.25 29.03,14.81 9.88,3.55 19.95,5.33 30.22,5.33 1.58,0 3.16,0 4.74,0 1.58,0 3.16,0 4.74,0 15.8,-2.37 30.21,-9.08 43.25,-20.14 13.03,-11.06 19.55,-24.89 19.55,-41.48 0,-12.64 -4.34,-27.45 -13.03,-44.43 -8.69,-16.99 -18.57,-36.15 -29.63,-57.48 -10.27,-21.32 -19.95,-45.22 -29.03,-71.69 -9.09,-26.46 -13.63,-55.1 -13.63,-85.91 0,-73.46 26.27,-137.26 78.8,-191.37 52.54,-54.11 115.93,-81.17 190.19,-81.17 16.59,0 32.98,1.38 49.18,4.15 16.19,2.76 31.79,6.91 46.8,12.44l0 -1.18zm373.27 2.37l0 790.37 -238.18 0 0 -790.37 238.18 0zm452.66 394.59l0 207.37 -63.99 0 0 188.41 -238.18 0 0 -509.54c0,-89.26 26.46,-161.35 79.39,-216.25 52.93,-54.91 124.82,-82.36 215.67,-82.36 84.52,0 152.26,29.62 203.22,88.87 50.95,59.25 76.43,129.56 76.43,210.93l0 508.35 -238.18 0 0 -509.54c0,0 0,-0.59 0,-1.77 0,-1.19 0,-2.57 0,-4.15 -0.79,-13.43 -4.94,-26.07 -12.44,-37.92 -7.51,-11.85 -18.76,-18.17 -33.77,-18.96 -17.38,0 -30.42,6.52 -39.11,19.55 -8.69,13.04 -13.03,27.85 -13.03,44.44l0 112.57 63.99 0z"/>
  <path class="fil2 str0" d="M6381.63 4826.18l0 -207.37c18.17,0.79 34.36,-2.77 48.58,-10.67 14.22,-7.9 21.33,-21.72 21.33,-41.47 0,-15.01 -5.14,-28.24 -15.41,-39.7 -10.26,-11.45 -23.3,-17.18 -39.1,-17.18 -16.59,0 -29.23,6.32 -37.92,18.96 -8.69,12.64 -13.82,26.46 -15.4,41.47 0,0.79 0,1.78 0,2.97 0,1.18 0,2.17 0,2.96l0 522.57 -235.81 0 0 -507.17c0,-17.38 0.79,-34.95 2.37,-52.73 1.58,-17.77 5.92,-35.35 13.03,-52.73 21.33,-56.88 57.87,-103.68 109.61,-140.42 51.75,-36.73 108.03,-55.1 168.86,-55.1 76.63,0 145.95,27.06 207.96,81.17 62.02,54.11 93.02,121.07 93.02,200.85 0,38.71 -7.9,76.04 -23.7,111.98 -15.8,35.95 -39.5,66.56 -71.09,91.84 -3.16,2.37 -6.13,4.54 -8.89,6.52 -2.77,1.97 -5.33,3.75 -7.7,5.33 -26.07,16.59 -52.14,27.25 -78.21,31.99 -26.07,4.74 -54.12,7.11 -84.13,7.11l-47.4 -1.18zm385.11 -135.09c0,-112.18 41.08,-206.97 123.24,-284.39 82.15,-77.42 178.53,-116.13 289.13,-116.13 111.39,0 208.75,38.71 292.09,116.13 83.35,77.42 125.02,172.61 125.02,285.58 0,114.54 -39.9,214.28 -119.68,299.2 -79.79,84.92 -178.14,127.38 -295.06,127.38 -116.92,0 -215.27,-42.46 -295.06,-127.38 -79.79,-84.92 -119.68,-184.66 -119.68,-299.2l0 -1.19zm231.07 3.56c0,51.34 17.38,96.77 52.14,136.27 34.76,39.5 78.2,59.25 130.34,59.25 52.93,0 96.97,-19.95 132.13,-59.85 35.15,-39.89 52.73,-85.12 52.73,-135.67 0,-49.77 -18.57,-91.44 -55.69,-125.02 -37.13,-33.57 -80.19,-50.36 -129.17,-50.36 -48.19,0 -90.65,17.18 -127.38,51.55 -36.73,34.36 -55.1,76.03 -55.1,125.01l0 -1.18zm708.61 -386.3l232.25 0 0 485.83c0,32.39 10.27,53.33 30.81,62.81 20.54,9.48 44.24,14.22 71.1,14.22l0 227.51 -72.28 0c-79.79,0 -143.38,-26.27 -190.78,-78.8 -47.4,-52.53 -71.1,-117.51 -71.1,-194.93l0 -516.64zm996.56 0l-231.07 351.93 0 438.44 -238.18 0 0 -438.44 -225.14 -351.93 238.17 0 104.28 163.52 118.5 -163.52 233.44 0zm39.1 790.37l0 -592.48c0,-57.67 22.51,-108.03 67.54,-151.09 45.03,-43.05 96.38,-64.58 154.05,-64.58 42.66,0 80.38,9.48 113.16,28.44 32.79,18.96 59.84,46.61 81.17,82.95 17.38,-31.6 42.46,-57.47 75.25,-77.62 32.78,-20.14 67.34,-31.4 103.68,-33.77 1.58,0 3.36,0 5.34,0 1.97,0 4.14,0 6.51,0 74.26,0 130.94,24.69 170.05,74.06 39.1,49.37 58.65,108.82 58.65,178.34l0 555.75 -232.25 0 0 -521.39c0,0 0,-0.59 0,-1.77 0,-1.19 0,-2.18 0,-2.97 -0.79,-9.48 -3.56,-18.36 -8.3,-26.66 -4.74,-8.29 -12.64,-12.44 -23.7,-12.44 -11.85,0 -20.54,4.15 -26.07,12.44 -5.53,8.3 -9.08,17.58 -10.66,27.85 0,1.58 0,2.96 0,4.15 0,1.18 0,2.56 0,4.14l0 516.65 -233.44 0 0 -521.39c0,0 0,-0.59 0,-1.77 0,-1.19 0,-2.18 0,-2.97 -0.79,-9.48 -3.55,-18.36 -8.29,-26.66 -4.74,-8.29 -12.64,-12.44 -23.7,-12.44 -12.64,0 -21.73,4.74 -27.26,14.22 -5.53,9.48 -8.29,19.75 -8.29,30.81l0 520.2 -233.44 0zm1424.33 -483.47l0 177.75 -154.04 0c-0.79,0.79 -1.39,1.18 -1.78,1.18 -0.4,0 -0.99,0 -1.78,0 -13.43,0 -25.87,2.18 -37.33,6.52 -11.45,4.34 -17.18,15.21 -17.18,32.59 0,16.59 5.33,27.25 16,31.99 10.66,4.74 22.32,7.51 34.96,8.3 3.16,0 6.12,0 8.88,0 2.77,0 5.73,0 8.89,0l157.6 -1.19 0 226.33 -193.15 0c-34.76,0 -67.34,-3.55 -97.76,-10.66 -30.41,-7.11 -59.44,-22.91 -87.09,-47.4 -23.7,-21.33 -42.07,-46.61 -55.11,-75.84 -13.03,-29.23 -19.55,-59.65 -19.55,-91.24l0 -349.57c0,-58.46 23.11,-108.82 69.32,-151.08 46.22,-42.27 98.16,-63.4 155.83,-63.4l227.51 -1.18 0 227.51 -157.6 0c-0.79,0.79 -1.38,1.18 -1.78,1.18 -0.39,0 -0.98,0 -1.77,0 -12.64,0 -24.1,2.77 -34.37,8.3 -10.27,5.53 -15.4,15.8 -15.4,30.81 0,14.22 4.74,24.09 14.22,29.62 9.48,5.53 19.75,9.09 30.81,10.67 2.37,0 4.54,0 6.51,0 1.98,0 4.15,0 6.52,0l138.64 -1.19zm406.44 -93.61l0 577.08 -234.62 0 0 -790.37 324.68 0c68.73,0.79 131.53,25.27 188.41,73.46 56.88,48.19 85.32,108.63 85.32,181.3 0,41.87 -8.89,80.98 -26.66,117.32 -17.78,36.33 -43.65,67.54 -77.62,93.61l136.27 324.68 -247.66 0 -113.75 -254.77 0 -202.63c1.58,0.79 3.35,1.19 5.33,1.19 1.97,0 4.15,0 6.52,0 20.54,-0.79 39.49,-5.14 56.87,-13.04 17.38,-7.9 26.07,-24.88 26.07,-50.95 0,-18.96 -6.71,-32.79 -20.14,-41.48 -13.43,-8.69 -28.44,-13.43 -45.03,-14.22 -0.79,0 -1.78,0 -2.96,0 -1.19,0 -2.17,0 -2.96,0l-58.07 -1.18zm713.35 -213.29l0 790.37 -238.18 0 0 -790.37 238.18 0zm150.49 790.37l0 -520.2c0,-76.63 26.86,-143.78 80.58,-201.45 53.71,-57.67 120.07,-86.5 199.07,-86.5 82.16,0 151.28,27.45 207.37,82.36 56.09,54.9 84.13,123.83 84.13,206.77l0 519.02 -235.81 0 0 -511.91c0,-15.01 -4.54,-27.84 -13.62,-38.51 -9.09,-10.66 -21.53,-16 -37.33,-16 -15.8,0 -28.24,5.53 -37.33,16.59 -9.08,11.06 -13.62,24.1 -13.62,39.11l0 510.72 -233.44 0zm955.08 -418.29l0 212.11 -79.39 0 0 206.18 -233.44 0 0 -505.98c0,-80.58 29.43,-151.09 88.28,-211.52 58.85,-60.43 129.36,-90.65 211.52,-90.65 48.98,0 93.81,11.06 134.49,33.18 40.69,22.12 75.64,52.14 104.87,90.06l-193.15 139.82c-4.74,-11.85 -11.26,-22.12 -19.55,-30.81 -8.3,-8.69 -19.16,-13.03 -32.59,-13.03 -19.75,0 -34.76,6.32 -45.03,18.96 -10.27,12.64 -15.4,28.44 -15.4,47.4l0 104.28 79.39 0zm234.63 10.66c0,-112.18 41.08,-206.97 123.24,-284.39 82.15,-77.42 178.53,-116.13 289.13,-116.13 111.39,0 208.75,38.71 292.09,116.13 83.35,77.42 125.02,172.61 125.02,285.58 0,114.54 -39.9,214.28 -119.68,299.2 -79.79,84.92 -178.14,127.38 -295.06,127.38 -116.92,0 -215.27,-42.46 -295.06,-127.38 -79.79,-84.92 -119.68,-184.66 -119.68,-299.2l0 -1.19zm231.07 3.56c0,51.34 17.38,96.77 52.14,136.27 34.76,39.5 78.2,59.25 130.34,59.25 52.93,0 96.97,-19.95 132.13,-59.85 35.15,-39.89 52.73,-85.12 52.73,-135.67 0,-49.77 -18.57,-91.44 -55.69,-125.02 -37.13,-33.57 -80.19,-50.36 -129.17,-50.36 -48.19,0 -90.65,17.18 -127.38,51.55 -36.73,34.36 -55.1,76.03 -55.1,125.01l0 -1.18zm724.01 283.2c0,-35.55 13.04,-67.34 39.11,-95.39 26.07,-28.04 57.27,-42.06 93.61,-42.06 38.71,0 72.09,13.43 100.13,40.29 28.04,26.85 42.07,59.64 42.07,98.35 0,37.92 -13.83,69.91 -41.48,95.98 -27.65,26.07 -60.04,39.1 -97.17,39.1 -37.12,0 -69.12,-13.23 -95.98,-39.69 -26.86,-26.47 -40.29,-58.26 -40.29,-95.39l0 -1.19zm734.69 -274.91l0 207.37 -63.99 0 0 188.41 -238.18 0 0 -509.54c0,-89.26 26.46,-161.35 79.39,-216.25 52.93,-54.91 124.82,-82.36 215.67,-82.36 84.52,0 152.26,29.62 203.22,88.87 50.95,59.25 76.43,129.56 76.43,210.93l0 508.35 -238.18 0 0 -509.54c0,0 0,-0.59 0,-1.77 0,-1.19 0,-2.57 0,-4.15 -0.79,-13.43 -4.94,-26.07 -12.44,-37.92 -7.51,-11.85 -18.76,-18.17 -33.77,-18.96 -17.38,0 -30.42,6.52 -39.11,19.55 -8.69,13.04 -13.03,27.85 -13.03,44.44l0 112.57 63.99 0zm809.33 -396.96l0 225.14c-6.32,-1.58 -12.83,-3.36 -19.55,-5.33 -6.71,-1.98 -13.23,-2.97 -19.55,-2.97 -18.17,0 -33.57,6.92 -46.21,20.74 -12.64,13.83 -18.96,29.43 -18.96,46.81 0,13.43 4.54,29.03 13.62,46.8 9.09,17.78 19.16,37.33 30.22,58.66 11.06,22.12 21.13,45.62 30.22,70.51 9.08,24.88 13.62,51.15 13.62,78.8 0,78.99 -28.83,144.37 -86.5,196.11 -57.67,51.74 -125.21,77.61 -202.63,77.61 -18.17,0 -36.14,-2.37 -53.92,-7.11 -17.77,-4.74 -34.95,-10.66 -51.54,-17.77l0 -229.88c9.48,6.32 19.16,11.25 29.03,14.81 9.88,3.55 19.95,5.33 30.22,5.33 1.58,0 3.16,0 4.74,0 1.58,0 3.16,0 4.74,0 15.8,-2.37 30.21,-9.08 43.25,-20.14 13.03,-11.06 19.55,-24.89 19.55,-41.48 0,-12.64 -4.34,-27.45 -13.03,-44.43 -8.69,-16.99 -18.57,-36.15 -29.63,-57.48 -10.27,-21.32 -19.95,-45.22 -29.03,-71.69 -9.09,-26.46 -13.63,-55.1 -13.63,-85.91 0,-73.46 26.27,-137.26 78.8,-191.37 52.54,-54.11 115.93,-81.17 190.19,-81.17 16.59,0 32.98,1.38 49.18,4.15 16.19,2.76 31.79,6.91 46.8,12.44l0 -1.18zm373.27 2.37l0 790.37 -238.18 0 0 -790.37 238.18 0zm452.66 394.59l0 207.37 -63.99 0 0 188.41 -238.18 0 0 -509.54c0,-89.26 26.46,-161.35 79.39,-216.25 52.93,-54.91 124.82,-82.36 215.67,-82.36 84.52,0 152.26,29.62 203.22,88.87 50.95,59.25 76.43,129.56 76.43,210.93l0 508.35 -238.18 0 0 -509.54c0,0 0,-0.59 0,-1.77 0,-1.19 0,-2.57 0,-4.15 -0.79,-13.43 -4.94,-26.07 -12.44,-37.92 -7.51,-11.85 -18.76,-18.17 -33.77,-18.96 -17.38,0 -30.42,6.52 -39.11,19.55 -8.69,13.04 -13.03,27.85 -13.03,44.44l0 112.57 63.99 0z"/>
  <g id="_2497177149872">
   <circle class="fil3" cx="8481.52" cy="10118.69" r="850.43"/>
   <path class="fil4" d="M8511.3 10249.73l0 -207.37c18.17,0.79 34.36,-2.77 48.58,-10.67 14.22,-7.9 21.33,-21.72 21.33,-41.47 0,-15.01 -5.14,-28.24 -15.41,-39.7 -10.26,-11.45 -23.3,-17.18 -39.1,-17.18 -16.59,0 -29.23,6.32 -37.92,18.96 -8.69,12.64 -13.82,26.46 -15.4,41.47 0,0.79 0,1.78 0,2.97 0,1.18 0,2.17 0,2.96l0 522.57 -235.81 0 0 -507.17c0,-17.38 0.79,-34.95 2.37,-52.73 1.58,-17.77 5.92,-35.35 13.03,-52.73 21.33,-56.88 57.87,-103.68 109.61,-140.42 51.75,-36.73 108.03,-55.1 168.86,-55.1 76.63,0 145.95,27.06 207.96,81.17 62.02,54.11 93.02,121.07 93.02,200.85 0,38.71 -7.9,76.04 -23.7,111.98 -15.8,35.95 -39.5,66.56 -71.09,91.84 -3.16,2.37 -6.13,4.54 -8.89,6.52 -2.77,1.97 -5.33,3.75 -7.7,5.33 -26.07,16.59 -52.14,27.25 -78.21,31.99 -26.07,4.74 -54.12,7.11 -84.13,7.11l-47.4 -1.18z"/>
   <path class="fil3" d="M8481.52 8481.62c259.92,0 505.66,60.6 723.92,168.43 -38.19,39.02 -69.85,84.43 -93.26,134.5 -191.21,-90.59 -405.01,-141.28 -630.66,-141.28 -657.22,0 -1213.97,429.77 -1404.83,1023.56 -50.3,-17.79 -104.38,-27.56 -160.73,-27.73 205,-670.11 828.32,-1157.48 1565.56,-1157.48zm1428.88 837.74c132.56,236.39 208.19,509.01 208.19,799.33 0,736.62 -486.58,1359.41 -1155.82,1564.95l0.01 -1.06c0,-56.01 -9.5,-109.81 -26.94,-159.88 592.53,-191.57 1021.1,-747.7 1021.1,-1404.01 0,-253.03 -63.71,-491.17 -175.94,-699.28 48.65,-25.92 92.36,-59.85 129.4,-100.05zm-1919.88 2361.38c-508.6,-159.74 -910.2,-561.01 -1070.43,-1069.45 56.28,-0.63 110.26,-10.81 160.4,-29.02 146.22,442.09 495.8,791.57 937.94,937.62 -17.87,50.32 -27.7,104.45 -27.91,160.85z"/>
   <circle class="fil3" cx="9552.81" cy="8990.09" r="278.55"/>
   <path class="fil4" d="M9591.75 8932.42l0 207.27 -77.88 0 0 -207.27 77.88 0zm-38.73 -91.93c10.22,0.28 19.23,4.04 27.03,11.27 7.8,7.24 11.7,15.97 11.7,26.18 0,11.07 -3.76,20 -11.27,26.81 -7.52,6.81 -16.67,10.22 -27.46,10.22 -10.78,0 -19.93,-3.41 -27.45,-10.22 -7.52,-6.81 -11.28,-15.74 -11.28,-26.81 0,-10.21 3.98,-18.94 11.92,-26.18 7.94,-7.23 16.88,-10.85 26.81,-10.85l0 -0.42z"/>
   <circle class="fil3" cx="8476.64" cy="11682.58" r="278.55"/>
   <path class="fil4" d="M8515.58 11624.91l0 207.27 -77.88 0 0 -207.27 77.88 0zm-38.73 -91.93c10.22,0.28 19.23,4.04 27.03,11.27 7.8,7.24 11.7,15.97 11.7,26.18 0,11.07 -3.76,20 -11.27,26.81 -7.52,6.81 -16.67,10.22 -27.46,10.22 -10.78,0 -19.93,-3.41 -27.45,-10.22 -7.52,-6.81 -11.28,-15.74 -11.28,-26.81 0,-10.21 3.98,-18.94 11.92,-26.18 7.94,-7.23 16.88,-10.85 26.81,-10.85l0 -0.42z"/>
   <circle class="fil5" cx="6914.52" cy="10125.22" r="278.55"/>
   <path class="fil4" d="M6953.46 10067.55l0 207.27 -77.88 0 0 -207.27 77.88 0zm-38.73 -91.93c10.22,0.28 19.23,4.04 27.03,11.27 7.8,7.24 11.7,15.97 11.7,26.18 0,11.07 -3.76,20 -11.27,26.81 -7.52,6.81 -16.67,10.22 -27.46,10.22 -10.78,0 -19.93,-3.41 -27.45,-10.22 -7.52,-6.81 -11.28,-15.74 -11.28,-26.81 0,-10.21 3.98,-18.94 11.92,-26.18 7.94,-7.23 16.88,-10.85 26.81,-10.85l0 -0.42z"/>
  </g>
  <g id="_2497177145456">
   <path class="fil3" d="M13725.1 9268.26c469.68,0 850.43,380.75 850.43,850.43 0,469.68 -380.75,850.43 -850.43,850.43 -469.68,0 -850.43,-380.75 -850.43,-850.43 0,-469.68 380.75,-850.43 850.43,-850.43zm29.78 981.47l0 -207.37c18.17,0.79 34.36,-2.77 48.58,-10.67 14.22,-7.9 21.33,-21.72 21.33,-41.47 0,-15.01 -5.14,-28.24 -15.41,-39.7 -10.26,-11.45 -23.3,-17.18 -39.1,-17.18 -16.59,0 -29.23,6.32 -37.92,18.96 -8.69,12.64 -13.82,26.46 -15.4,41.47 0,0.79 0,1.78 0,2.97 0,1.18 0,2.17 0,2.96l0 522.57 -235.81 0 0 -507.17c0,-17.38 0.79,-34.95 2.37,-52.73 1.58,-17.77 5.92,-35.35 13.03,-52.73 21.33,-56.88 57.87,-103.68 109.61,-140.42 51.75,-36.73 108.03,-55.1 168.86,-55.1 76.63,0 145.95,27.06 207.96,81.17 62.02,54.11 93.02,121.07 93.02,200.85 0,38.71 -7.9,76.04 -23.7,111.98 -15.8,35.95 -39.5,66.56 -71.09,91.84 -3.16,2.37 -6.13,4.54 -8.89,6.52 -2.77,1.97 -5.33,3.75 -7.7,5.33 -26.07,16.59 -52.14,27.25 -78.21,31.99 -26.07,4.74 -54.12,7.11 -84.13,7.11l-47.4 -1.18z"/>
   <path class="fil3" d="M13725.1 8481.62c259.92,0 505.66,60.6 723.92,168.43 -38.19,39.02 -69.85,84.43 -93.26,134.5 -191.21,-90.59 -405.01,-141.28 -630.66,-141.28 -657.22,0 -1213.97,429.77 -1404.83,1023.56 -50.3,-17.79 -104.38,-27.56 -160.73,-27.73 205,-670.11 828.32,-1157.48 1565.56,-1157.48zm1428.88 837.74c132.56,236.39 208.19,509.01 208.19,799.33 0,736.62 -486.58,1359.41 -1155.82,1564.95l0.01 -1.06c0,-56.01 -9.5,-109.81 -26.94,-159.88 592.53,-191.57 1021.1,-747.7 1021.1,-1404.01 0,-253.03 -63.71,-491.17 -175.94,-699.28 48.65,-25.92 92.36,-59.85 129.4,-100.05zm-1919.88 2361.38c-508.6,-159.74 -910.2,-561.01 -1070.43,-1069.45 56.28,-0.63 110.26,-10.81 160.4,-29.02 146.22,442.09 495.8,791.57 937.94,937.62 -17.87,50.32 -27.7,104.45 -27.91,160.85z"/>
   <path class="fil3" d="M14796.39 8711.54c153.83,0 278.55,124.72 278.55,278.55 0,153.83 -124.72,278.55 -278.55,278.55 -153.83,0 -278.55,-124.72 -278.55,-278.55 0,-153.83 124.72,-278.55 278.55,-278.55zm38.94 220.88l0 207.27 -77.88 0 0 -207.27 77.88 0zm-38.73 -91.93c10.22,0.28 19.23,4.04 27.03,11.27 7.8,7.24 11.7,15.97 11.7,26.18 0,11.07 -3.76,20 -11.27,26.81 -7.52,6.81 -16.67,10.22 -27.46,10.22 -10.78,0 -19.93,-3.41 -27.45,-10.22 -7.52,-6.81 -11.28,-15.74 -11.28,-26.81 0,-10.21 3.98,-18.94 11.92,-26.18 7.94,-7.23 16.88,-10.85 26.81,-10.85l0 -0.42z"/>
   <path class="fil3" d="M13720.22 11404.03c153.83,0 278.55,124.72 278.55,278.55 0,153.83 -124.72,278.55 -278.55,278.55 -153.83,0 -278.55,-124.72 -278.55,-278.55 0,-153.83 124.72,-278.55 278.55,-278.55zm38.94 220.88l0 207.27 -77.88 0 0 -207.27 77.88 0zm-38.73 -91.93c10.22,0.28 19.23,4.04 27.03,11.27 7.8,7.24 11.7,15.97 11.7,26.18 0,11.07 -3.76,20 -11.27,26.81 -7.52,6.81 -16.67,10.22 -27.46,10.22 -10.78,0 -19.93,-3.41 -27.45,-10.22 -7.52,-6.81 -11.28,-15.74 -11.28,-26.81 0,-10.21 3.98,-18.94 11.92,-26.18 7.94,-7.23 16.88,-10.85 26.81,-10.85l0 -0.42z"/>
   <path class="fil5" d="M12158.1 9846.67c153.83,0 278.55,124.72 278.55,278.55 0,153.83 -124.72,278.55 -278.55,278.55 -153.83,0 -278.55,-124.72 -278.55,-278.55 0,-153.83 124.72,-278.55 278.55,-278.55zm38.94 220.88l0 207.27 -77.88 0 0 -207.27 77.88 0zm-38.73 -91.93c10.22,0.28 19.23,4.04 27.03,11.27 7.8,7.24 11.7,15.97 11.7,26.18 0,11.07 -3.76,20 -11.27,26.81 -7.52,6.81 -16.67,10.22 -27.46,10.22 -10.78,0 -19.93,-3.41 -27.45,-10.22 -7.52,-6.81 -11.28,-15.74 -11.28,-26.81 0,-10.21 3.98,-18.94 11.92,-26.18 7.94,-7.23 16.88,-10.85 26.81,-10.85l0 -0.42z"/>
  </g>
  <path class="fil4 str0" d="M6381.63 6476.45l0 -207.37c18.17,0.79 34.36,-2.77 48.58,-10.67 14.22,-7.9 21.33,-21.72 21.33,-41.47 0,-15.01 -5.14,-28.24 -15.41,-39.7 -10.26,-11.45 -23.3,-17.18 -39.1,-17.18 -16.59,0 -29.23,6.32 -37.92,18.96 -8.69,12.64 -13.82,26.46 -15.4,41.47 0,0.79 0,1.78 0,2.97 0,1.18 0,2.17 0,2.96l0 522.57 -235.81 0 0 -507.17c0,-17.38 0.79,-34.95 2.37,-52.73 1.58,-17.77 5.92,-35.35 13.03,-52.73 21.33,-56.88 57.87,-103.68 109.61,-140.42 51.75,-36.73 108.03,-55.1 168.86,-55.1 76.63,0 145.95,27.06 207.96,81.17 62.02,54.11 93.02,121.07 93.02,200.85 0,38.71 -7.9,76.04 -23.7,111.98 -15.8,35.95 -39.5,66.56 -71.09,91.84 -3.16,2.37 -6.13,4.54 -8.89,6.52 -2.77,1.97 -5.33,3.75 -7.7,5.33 -26.07,16.59 -52.14,27.25 -78.21,31.99 -26.07,4.74 -54.12,7.11 -84.13,7.11l-47.4 -1.18zm385.11 -135.09c0,-112.18 41.08,-206.97 123.24,-284.39 82.15,-77.42 178.53,-116.13 289.13,-116.13 111.39,0 208.75,38.71 292.09,116.13 83.35,77.42 125.02,172.61 125.02,285.58 0,114.54 -39.9,214.28 -119.68,299.2 -79.79,84.92 -178.14,127.38 -295.06,127.38 -116.92,0 -215.27,-42.46 -295.06,-127.38 -79.79,-84.92 -119.68,-184.66 -119.68,-299.2l0 -1.19zm231.07 3.56c0,51.34 17.38,96.77 52.14,136.27 34.76,39.5 78.2,59.25 130.34,59.25 52.93,0 96.97,-19.95 132.13,-59.85 35.15,-39.89 52.73,-85.12 52.73,-135.67 0,-49.77 -18.57,-91.44 -55.69,-125.02 -37.13,-33.57 -80.19,-50.36 -129.17,-50.36 -48.19,0 -90.65,17.18 -127.38,51.55 -36.73,34.36 -55.1,76.03 -55.1,125.01l0 -1.18zm708.61 -386.3l232.25 0 0 485.83c0,32.39 10.27,53.33 30.81,62.81 20.54,9.48 44.24,14.22 71.1,14.22l0 227.51 -72.28 0c-79.79,0 -143.38,-26.27 -190.78,-78.8 -47.4,-52.53 -71.1,-117.51 -71.1,-194.93l0 -516.64zm996.56 0l-231.07 351.93 0 438.44 -238.18 0 0 -438.44 -225.14 -351.93 238.17 0 104.28 163.52 118.5 -163.52 233.44 0zm39.1 790.37l0 -592.48c0,-57.67 22.51,-108.03 67.54,-151.09 45.03,-43.05 96.38,-64.58 154.05,-64.58 42.66,0 80.38,9.48 113.16,28.44 32.79,18.96 59.84,46.61 81.17,82.95 17.38,-31.6 42.46,-57.47 75.25,-77.62 32.78,-20.14 67.34,-31.4 103.68,-33.77 1.58,0 3.36,0 5.34,0 1.97,0 4.14,0 6.51,0 74.26,0 130.94,24.69 170.05,74.06 39.1,49.37 58.65,108.82 58.65,178.34l0 555.75 -232.25 0 0 -521.39c0,0 0,-0.59 0,-1.77 0,-1.19 0,-2.18 0,-2.97 -0.79,-9.48 -3.56,-18.36 -8.3,-26.66 -4.74,-8.29 -12.64,-12.44 -23.7,-12.44 -11.85,0 -20.54,4.15 -26.07,12.44 -5.53,8.3 -9.08,17.58 -10.66,27.85 0,1.58 0,2.96 0,4.15 0,1.18 0,2.56 0,4.14l0 516.65 -233.44 0 0 -521.39c0,0 0,-0.59 0,-1.77 0,-1.19 0,-2.18 0,-2.97 -0.79,-9.48 -3.55,-18.36 -8.29,-26.66 -4.74,-8.29 -12.64,-12.44 -23.7,-12.44 -12.64,0 -21.73,4.74 -27.26,14.22 -5.53,9.48 -8.29,19.75 -8.29,30.81l0 520.2 -233.44 0zm1424.33 -483.47l0 177.75 -154.04 0c-0.79,0.79 -1.39,1.18 -1.78,1.18 -0.4,0 -0.99,0 -1.78,0 -13.43,0 -25.87,2.18 -37.33,6.52 -11.45,4.34 -17.18,15.21 -17.18,32.59 0,16.59 5.33,27.25 16,31.99 10.66,4.74 22.32,7.51 34.96,8.3 3.16,0 6.12,0 8.88,0 2.77,0 5.73,0 8.89,0l157.6 -1.19 0 226.33 -193.15 0c-34.76,0 -67.34,-3.55 -97.76,-10.66 -30.41,-7.11 -59.44,-22.91 -87.09,-47.4 -23.7,-21.33 -42.07,-46.61 -55.11,-75.84 -13.03,-29.23 -19.55,-59.65 -19.55,-91.24l0 -349.57c0,-58.46 23.11,-108.82 69.32,-151.08 46.22,-42.27 98.16,-63.4 155.83,-63.4l227.51 -1.18 0 227.51 -157.6 0c-0.79,0.79 -1.38,1.18 -1.78,1.18 -0.39,0 -0.98,0 -1.77,0 -12.64,0 -24.1,2.77 -34.37,8.3 -10.27,5.53 -15.4,15.8 -15.4,30.81 0,14.22 4.74,24.09 14.22,29.62 9.48,5.53 19.75,9.09 30.81,10.67 2.37,0 4.54,0 6.51,0 1.98,0 4.15,0 6.52,0l138.64 -1.19zm406.44 -93.61l0 577.08 -234.62 0 0 -790.37 324.68 0c68.73,0.79 131.53,25.27 188.41,73.46 56.88,48.19 85.32,108.63 85.32,181.3 0,41.87 -8.89,80.98 -26.66,117.32 -17.78,36.33 -43.65,67.54 -77.62,93.61l136.27 324.68 -247.66 0 -113.75 -254.77 0 -202.63c1.58,0.79 3.35,1.19 5.33,1.19 1.97,0 4.15,0 6.52,0 20.54,-0.79 39.49,-5.14 56.87,-13.04 17.38,-7.9 26.07,-24.88 26.07,-50.95 0,-18.96 -6.71,-32.79 -20.14,-41.48 -13.43,-8.69 -28.44,-13.43 -45.03,-14.22 -0.79,0 -1.78,0 -2.96,0 -1.19,0 -2.17,0 -2.96,0l-58.07 -1.18zm713.35 -213.29l0 790.37 -238.18 0 0 -790.37 238.18 0zm150.49 790.37l0 -520.2c0,-76.63 26.86,-143.78 80.58,-201.45 53.71,-57.67 120.07,-86.5 199.07,-86.5 82.16,0 151.28,27.45 207.37,82.36 56.09,54.9 84.13,123.83 84.13,206.77l0 519.02 -235.81 0 0 -511.91c0,-15.01 -4.54,-27.84 -13.62,-38.51 -9.09,-10.66 -21.53,-16 -37.33,-16 -15.8,0 -28.24,5.53 -37.33,16.59 -9.08,11.06 -13.62,24.1 -13.62,39.11l0 510.72 -233.44 0zm955.08 -418.29l0 212.11 -79.39 0 0 206.18 -233.44 0 0 -505.98c0,-80.58 29.43,-151.09 88.28,-211.52 58.85,-60.43 129.36,-90.65 211.52,-90.65 48.98,0 93.81,11.06 134.49,33.18 40.69,22.12 75.64,52.14 104.87,90.06l-193.15 139.82c-4.74,-11.85 -11.26,-22.12 -19.55,-30.81 -8.3,-8.69 -19.16,-13.03 -32.59,-13.03 -19.75,0 -34.76,6.32 -45.03,18.96 -10.27,12.64 -15.4,28.44 -15.4,47.4l0 104.28 79.39 0zm234.63 10.66c0,-112.18 41.08,-206.97 123.24,-284.39 82.15,-77.42 178.53,-116.13 289.13,-116.13 111.39,0 208.75,38.71 292.09,116.13 83.35,77.42 125.02,172.61 125.02,285.58 0,114.54 -39.9,214.28 -119.68,299.2 -79.79,84.92 -178.14,127.38 -295.06,127.38 -116.92,0 -215.27,-42.46 -295.06,-127.38 -79.79,-84.92 -119.68,-184.66 -119.68,-299.2l0 -1.19zm231.07 3.56c0,51.34 17.38,96.77 52.14,136.27 34.76,39.5 78.2,59.25 130.34,59.25 52.93,0 96.97,-19.95 132.13,-59.85 35.15,-39.89 52.73,-85.12 52.73,-135.67 0,-49.77 -18.57,-91.44 -55.69,-125.02 -37.13,-33.57 -80.19,-50.36 -129.17,-50.36 -48.19,0 -90.65,17.18 -127.38,51.55 -36.73,34.36 -55.1,76.03 -55.1,125.01l0 -1.18zm724.01 283.2c0,-35.55 13.04,-67.34 39.11,-95.39 26.07,-28.04 57.27,-42.06 93.61,-42.06 38.71,0 72.09,13.43 100.13,40.29 28.04,26.85 42.07,59.64 42.07,98.35 0,37.92 -13.83,69.91 -41.48,95.98 -27.65,26.07 -60.04,39.1 -97.17,39.1 -37.12,0 -69.12,-13.23 -95.98,-39.69 -26.86,-26.47 -40.29,-58.26 -40.29,-95.39l0 -1.19zm734.69 -274.91l0 207.37 -63.99 0 0 188.41 -238.18 0 0 -509.54c0,-89.26 26.46,-161.35 79.39,-216.25 52.93,-54.91 124.82,-82.36 215.67,-82.36 84.52,0 152.26,29.62 203.22,88.87 50.95,59.25 76.43,129.56 76.43,210.93l0 508.35 -238.18 0 0 -509.54c0,0 0,-0.59 0,-1.77 0,-1.19 0,-2.57 0,-4.15 -0.79,-13.43 -4.94,-26.07 -12.44,-37.92 -7.51,-11.85 -18.76,-18.17 -33.77,-18.96 -17.38,0 -30.42,6.52 -39.11,19.55 -8.69,13.04 -13.03,27.85 -13.03,44.44l0 112.57 63.99 0zm809.33 -396.96l0 225.14c-6.32,-1.58 -12.83,-3.36 -19.55,-5.33 -6.71,-1.98 -13.23,-2.97 -19.55,-2.97 -18.17,0 -33.57,6.92 -46.21,20.74 -12.64,13.83 -18.96,29.43 -18.96,46.81 0,13.43 4.54,29.03 13.62,46.8 9.09,17.78 19.16,37.33 30.22,58.66 11.06,22.12 21.13,45.62 30.22,70.51 9.08,24.88 13.62,51.15 13.62,78.8 0,78.99 -28.83,144.37 -86.5,196.11 -57.67,51.74 -125.21,77.61 -202.63,77.61 -18.17,0 -36.14,-2.37 -53.92,-7.11 -17.77,-4.74 -34.95,-10.66 -51.54,-17.77l0 -229.88c9.48,6.32 19.16,11.25 29.03,14.81 9.88,3.55 19.95,5.33 30.22,5.33 1.58,0 3.16,0 4.74,0 1.58,0 3.16,0 4.74,0 15.8,-2.37 30.21,-9.08 43.25,-20.14 13.03,-11.06 19.55,-24.89 19.55,-41.48 0,-12.64 -4.34,-27.45 -13.03,-44.43 -8.69,-16.99 -18.57,-36.15 -29.63,-57.48 -10.27,-21.32 -19.95,-45.22 -29.03,-71.69 -9.09,-26.46 -13.63,-55.1 -13.63,-85.91 0,-73.46 26.27,-137.26 78.8,-191.37 52.54,-54.11 115.93,-81.17 190.19,-81.17 16.59,0 32.98,1.38 49.18,4.15 16.19,2.76 31.79,6.91 46.8,12.44l0 -1.18zm373.27 2.37l0 790.37 -238.18 0 0 -790.37 238.18 0zm452.66 394.59l0 207.37 -63.99 0 0 188.41 -238.18 0 0 -509.54c0,-89.26 26.46,-161.35 79.39,-216.25 52.93,-54.91 124.82,-82.36 215.67,-82.36 84.52,0 152.26,29.62 203.22,88.87 50.95,59.25 76.43,129.56 76.43,210.93l0 508.35 -238.18 0 0 -509.54c0,0 0,-0.59 0,-1.77 0,-1.19 0,-2.57 0,-4.15 -0.79,-13.43 -4.94,-26.07 -12.44,-37.92 -7.51,-11.85 -18.76,-18.17 -33.77,-18.96 -17.38,0 -30.42,6.52 -39.11,19.55 -8.69,13.04 -13.03,27.85 -13.03,44.44l0 112.57 63.99 0z"/>
 </g>
</svg>
