<?xml version="1.0" encoding="UTF-8"?>
<!DOCTYPE svg PUBLIC "-//W3C//DTD SVG 1.1//EN" "http://www.w3.org/Graphics/SVG/1.1/DTD/svg11.dtd">
<!-- Creator: CorelDRAW 2020 (64-Bit) -->
<svg xmlns="http://www.w3.org/2000/svg" xml:space="preserve" width="2480px" height="3508px" version="1.1" style="shape-rendering:geometricPrecision; text-rendering:geometricPrecision; image-rendering:optimizeQuality; fill-rule:evenodd; clip-rule:evenodd"
viewBox="0 0 2480 3507.43"
 xmlns:xlink="http://www.w3.org/1999/xlink"
 xmlns:xodm="http://www.corel.com/coreldraw/odm/2003">
 <defs>
  <style type="text/css">
   <![CDATA[
    .fil2 {fill:#434242}
    .fil0 {fill:#2B2A29}
    .fil1 {fill:#FEFEFE;fill-rule:nonzero}
   ]]>
  </style>
 </defs>
 <g id="Слой_x0020_1">
  <metadata id="CorelCorpID_0Corel-Layer"/>
  <g id="_1753675831488">
   <circle class="fil0" cx="446.04" cy="387.42" r="100.43"/>
   <path class="fil1" d="M449.56 402.9l0 -24.49c2.14,0.09 4.06,-0.33 5.74,-1.26 1.68,-0.93 2.52,-2.57 2.52,-4.9 0,-1.77 -0.61,-3.33 -1.82,-4.69 -1.22,-1.35 -2.76,-2.03 -4.62,-2.03 -1.96,0 -3.45,0.75 -4.48,2.24 -1.03,1.5 -1.63,3.13 -1.82,4.9 0,0.09 0,0.21 0,0.35 0,0.14 0,0.26 0,0.35l0 61.71 -27.85 0 0 -59.89c0,-2.05 0.1,-4.13 0.28,-6.23 0.19,-2.1 0.7,-4.17 1.54,-6.22 2.52,-6.72 6.84,-12.25 12.95,-16.59 6.11,-4.34 12.75,-6.5 19.94,-6.5 9.05,0 17.23,3.19 24.56,9.58 7.32,6.39 10.98,14.3 10.98,23.72 0,4.57 -0.93,8.98 -2.8,13.22 -1.86,4.25 -4.66,7.87 -8.39,10.85 -0.38,0.28 -0.73,0.54 -1.05,0.77 -0.33,0.23 -0.63,0.44 -0.91,0.63 -3.08,1.96 -6.16,3.22 -9.24,3.78 -3.08,0.56 -6.39,0.84 -9.93,0.84l-5.6 -0.14z"/>
   <path class="fil0" d="M446.04 194.09c30.7,0 59.72,7.16 85.49,19.89 -4.51,4.61 -8.25,9.97 -11.01,15.89 -22.58,-10.7 -47.83,-16.69 -74.48,-16.69 -77.61,0 -143.36,50.76 -165.9,120.88 -5.94,-2.1 -12.33,-3.25 -18.98,-3.27 24.21,-79.14 97.82,-136.7 184.88,-136.7zm168.75 98.94c15.65,27.91 24.58,60.11 24.58,94.39 0,86.99 -57.46,160.54 -136.49,184.82l0 -0.13c0,-6.61 -1.13,-12.97 -3.18,-18.88 69.97,-22.62 120.58,-88.3 120.58,-165.81 0,-29.88 -7.52,-58 -20.78,-82.58 5.75,-3.06 10.91,-7.07 15.29,-11.81zm-226.73 278.86c-60.07,-18.86 -107.49,-66.25 -126.42,-126.29 6.65,-0.08 13.03,-1.28 18.95,-3.43 17.27,52.21 58.55,93.48 110.76,110.73 -2.11,5.94 -3.27,12.33 -3.29,18.99z"/>
   <circle class="fil0" cx="572.56" cy="254.14" r="32.9"/>
   <path class="fil1" d="M577.16 247.33l0 24.48 -9.2 0 0 -24.48 9.2 0zm-4.58 -10.86c1.21,0.04 2.27,0.48 3.19,1.33 0.92,0.86 1.39,1.89 1.39,3.1 0,1.3 -0.45,2.36 -1.34,3.16 -0.88,0.81 -1.96,1.21 -3.24,1.21 -1.27,0 -2.35,-0.4 -3.24,-1.21 -0.89,-0.8 -1.33,-1.86 -1.33,-3.16 0,-1.21 0.47,-2.24 1.41,-3.1 0.93,-0.85 1.99,-1.28 3.16,-1.28l0 -0.05z"/>
   <circle class="fil0" cx="445.47" cy="572.11" r="32.9"/>
   <path class="fil1" d="M450.06 565.3l0 24.48 -9.19 0 0 -24.48 9.19 0zm-4.57 -10.86c1.21,0.04 2.27,0.48 3.19,1.34 0.92,0.85 1.38,1.88 1.38,3.09 0,1.3 -0.44,2.36 -1.33,3.16 -0.88,0.81 -1.97,1.21 -3.24,1.21 -1.27,0 -2.35,-0.4 -3.24,-1.21 -0.89,-0.8 -1.33,-1.86 -1.33,-3.16 0,-1.21 0.47,-2.24 1.4,-3.09 0.94,-0.86 2,-1.29 3.17,-1.29l0 -0.05z"/>
   <circle class="fil2" cx="260.99" cy="388.19" r="32.9"/>
   <path class="fil1" d="M265.59 381.38l0 24.48 -9.2 0 0 -24.48 9.2 0zm-4.58 -10.85c1.21,0.03 2.27,0.47 3.19,1.33 0.92,0.85 1.39,1.88 1.39,3.09 0,1.31 -0.45,2.36 -1.34,3.17 -0.88,0.8 -1.96,1.2 -3.24,1.2 -1.27,0 -2.35,-0.4 -3.24,-1.2 -0.89,-0.81 -1.33,-1.86 -1.33,-3.17 0,-1.21 0.47,-2.24 1.41,-3.09 0.93,-0.86 1.99,-1.28 3.16,-1.28l0 -0.05z"/>
  </g>
 </g>
</svg>
